solid OpenSCAD_Model
  facet normal 1 0 0
    outer loop
      vertex 111.2 0 9.7
      vertex 111.2 -20 0
      vertex 111.2 0 0
    endloop
  endfacet
  facet normal 1 0 0
    outer loop
      vertex 111.2 0 9.7
      vertex 111.2 -32.4747 -1.31114
      vertex 111.2 -20 0
    endloop
  endfacet
  facet normal 1 -0 0
    outer loop
      vertex 111.2 -84 9.7
      vertex 111.2 -32.4747 -1.31114
      vertex 111.2 0 9.7
    endloop
  endfacet
  facet normal 1 0 0
    outer loop
      vertex 111.2 -79.6713 -53.7283
      vertex 111.2 -80 -60
      vertex 111.2 -79.6713 -60
    endloop
  endfacet
  facet normal 1 0 0
    outer loop
      vertex 111.2 -77.0634 -41.459
      vertex 111.2 -84 -36.5
      vertex 111.2 -79.6713 -53.7283
    endloop
  endfacet
  facet normal 1 -0 0
    outer loop
      vertex 111.2 -84 -36.5
      vertex 111.2 -77.0634 -41.459
      vertex 111.2 -82 -36.5
    endloop
  endfacet
  facet normal 1 0 0
    outer loop
      vertex 111.2 -71.9615 -30
      vertex 111.2 -82 -36.5
      vertex 111.2 -77.0634 -41.459
    endloop
  endfacet
  facet normal 1 0 0
    outer loop
      vertex 111.2 -82 -36.5
      vertex 111.2 -71.9615 -30
      vertex 111.2 -82 -3.5
    endloop
  endfacet
  facet normal 1 0 0
    outer loop
      vertex 111.2 -64.5887 -19.8522
      vertex 111.2 -82 -3.5
      vertex 111.2 -71.9615 -30
    endloop
  endfacet
  facet normal 1 0 0
    outer loop
      vertex 111.2 -55.2671 -11.459
      vertex 111.2 -82 -3.5
      vertex 111.2 -64.5887 -19.8522
    endloop
  endfacet
  facet normal 1 0 0
    outer loop
      vertex 111.2 -84 9.7
      vertex 111.2 -55.2671 -11.459
      vertex 111.2 -44.4042 -5.18727
    endloop
  endfacet
  facet normal 1 0 0
    outer loop
      vertex 111.2 -32.4747 -1.31114
      vertex 111.2 -84 9.7
      vertex 111.2 -44.4042 -5.18727
    endloop
  endfacet
  facet normal 1 0 0
    outer loop
      vertex 111.2 -55.2671 -11.459
      vertex 111.2 -84 9.7
      vertex 111.2 -82 -3.5
    endloop
  endfacet
  facet normal 1 -0 0
    outer loop
      vertex 111.2 -84 1.5
      vertex 111.2 -82 -3.5
      vertex 111.2 -84 9.7
    endloop
  endfacet
  facet normal 1 0 0
    outer loop
      vertex 111.2 -84 1.5
      vertex 111.2 -84 -3.5
      vertex 111.2 -82 -3.5
    endloop
  endfacet
  facet normal 1 -0 0
    outer loop
      vertex 111.2 -112 1.5
      vertex 111.2 -84 -3.5
      vertex 111.2 -84 1.5
    endloop
  endfacet
  facet normal 1 0 0
    outer loop
      vertex 111.2 -84 -3.5
      vertex 111.2 -112 1.5
      vertex 111.2 -112 -3.5
    endloop
  endfacet
  facet normal 1 0 0
    outer loop
      vertex 111.2 -84 -61
      vertex 111.2 -79.6713 -53.7283
      vertex 111.2 -84 -36.5
    endloop
  endfacet
  facet normal 1 0 0
    outer loop
      vertex 111.2 -79.6713 -53.7283
      vertex 111.2 -84 -61
      vertex 111.2 -80 -60
    endloop
  endfacet
  facet normal 1 0 0
    outer loop
      vertex 111.2 -80 -60
      vertex 111.2 -84 -61
      vertex 111.2 -80 -61
    endloop
  endfacet
  facet normal 0 0 -1
    outer loop
      vertex 94.8335 -105.659 -61
      vertex 100.5 -112 -61
      vertex 95.5 -112 -61
    endloop
  endfacet
  facet normal 0 0 -1
    outer loop
      vertex 100.5 -84 -61
      vertex 111.2 -80 -61
      vertex 111.2 -84 -61
    endloop
  endfacet
  facet normal 0 0 -1
    outer loop
      vertex 100.5 -112 -61
      vertex 94.8335 -105.659 -61
      vertex 100.5 -84 -61
    endloop
  endfacet
  facet normal 0 0 -1
    outer loop
      vertex 92.8631 -99.5945 -61
      vertex 100.5 -84 -61
      vertex 94.8335 -105.659 -61
    endloop
  endfacet
  facet normal 0 0 -1
    outer loop
      vertex 89.675 -94.0725 -61
      vertex 100.5 -84 -61
      vertex 92.8631 -99.5945 -61
    endloop
  endfacet
  facet normal 0 0 -1
    outer loop
      vertex 85.4085 -89.3341 -61
      vertex 100.5 -84 -61
      vertex 89.675 -94.0725 -61
    endloop
  endfacet
  facet normal 0 0 -1
    outer loop
      vertex 80.25 -85.5862 -61
      vertex 100.5 -84 -61
      vertex 85.4085 -89.3341 -61
    endloop
  endfacet
  facet normal 0 0 -1
    outer loop
      vertex 76.6873 -84 -61
      vertex 100.5 -84 -61
      vertex 80.25 -85.5862 -61
    endloop
  endfacet
  facet normal 0 0 -1
    outer loop
      vertex 100.5 -84 -61
      vertex 76.6873 -84 -61
      vertex 111.2 -80 -61
    endloop
  endfacet
  facet normal 0 0 -1
    outer loop
      vertex 53.3127 -84 -61
      vertex 111.2 -80 -61
      vertex 76.6873 -84 -61
    endloop
  endfacet
  facet normal 0 0 -1
    outer loop
      vertex 29.5 -112 -61
      vertex 35.1665 -105.659 -61
      vertex 34.5 -112 -61
    endloop
  endfacet
  facet normal 0 0 -1
    outer loop
      vertex 29.5 -84 -61
      vertex 35.1665 -105.659 -61
      vertex 29.5 -112 -61
    endloop
  endfacet
  facet normal 0 0 -1
    outer loop
      vertex 35.1665 -105.659 -61
      vertex 29.5 -84 -61
      vertex 37.1369 -99.5945 -61
    endloop
  endfacet
  facet normal 0 0 -1
    outer loop
      vertex 37.1369 -99.5945 -61
      vertex 29.5 -84 -61
      vertex 40.325 -94.0725 -61
    endloop
  endfacet
  facet normal 0 0 -1
    outer loop
      vertex 29.5 -84 -61
      vertex 44.5915 -89.3341 -61
      vertex 40.325 -94.0725 -61
    endloop
  endfacet
  facet normal 0 0 -1
    outer loop
      vertex 29.5 -84 -61
      vertex 49.75 -85.5862 -61
      vertex 44.5915 -89.3341 -61
    endloop
  endfacet
  facet normal 0 0 -1
    outer loop
      vertex 29.5 -84 -61
      vertex 53.3127 -84 -61
      vertex 49.75 -85.5862 -61
    endloop
  endfacet
  facet normal 0 0 -1
    outer loop
      vertex 0 -80 -61
      vertex 53.3127 -84 -61
      vertex 29.5 -84 -61
    endloop
  endfacet
  facet normal 0 0 -1
    outer loop
      vertex 0 -80 -61
      vertex 29.5 -84 -61
      vertex 0 -84 -61
    endloop
  endfacet
  facet normal 0 0 -1
    outer loop
      vertex 53.3127 -84 -61
      vertex 0 -80 -61
      vertex 111.2 -80 -61
    endloop
  endfacet
  facet normal -1 0 0
    outer loop
      vertex 0 -79.6713 -60
      vertex 0 -80 -60
      vertex 0 -79.6713 -53.7283
    endloop
  endfacet
  facet normal -1 0 0
    outer loop
      vertex 0 -71.9615 -30
      vertex 0 -75.8806 -28.4134
      vertex 0 -75.5 -26.5
    endloop
  endfacet
  facet normal -1 -0 0
    outer loop
      vertex 0 -71.9615 -30
      vertex 0 -76.9645 -30.0355
      vertex 0 -75.8806 -28.4134
    endloop
  endfacet
  facet normal -1 0 0
    outer loop
      vertex 0 -78.5866 -31.1194
      vertex 0 -71.9615 -30
      vertex 0 -77.0634 -41.459
    endloop
  endfacet
  facet normal -1 0 0
    outer loop
      vertex 0 -71.9615 -30
      vertex 0 -78.5866 -31.1194
      vertex 0 -76.9645 -30.0355
    endloop
  endfacet
  facet normal -1 0 0
    outer loop
      vertex 0 -82 -50.2
      vertex 0 -77.0634 -41.459
      vertex 0 -79.6713 -53.7283
    endloop
  endfacet
  facet normal -1 0 0
    outer loop
      vertex 0 -84 -61
      vertex 0 -79.6713 -53.7283
      vertex 0 -80 -60
    endloop
  endfacet
  facet normal -1 0 0
    outer loop
      vertex 0 -82 -31.5
      vertex 0 -77.0634 -41.459
      vertex 0 -82 -50.2
    endloop
  endfacet
  facet normal -1 0 0
    outer loop
      vertex 0 -78.5866 -31.1194
      vertex 0 -80 -31.5
      vertex 0 -80 -31.4005
    endloop
  endfacet
  facet normal -1 0 0
    outer loop
      vertex 0 30 0
      vertex 0 0 4
      vertex 0 30 4
    endloop
  endfacet
  facet normal -1 0 0
    outer loop
      vertex 0 -20 0
      vertex 0 0 4
      vertex 0 30 0
    endloop
  endfacet
  facet normal -1 0 0
    outer loop
      vertex 0 -20 0
      vertex 0 0 9.7
      vertex 0 0 4
    endloop
  endfacet
  facet normal -1 0 0
    outer loop
      vertex 0 -32.4747 -1.31114
      vertex 0 0 9.7
      vertex 0 -20 0
    endloop
  endfacet
  facet normal -1 0 0
    outer loop
      vertex 0 -84 9.7
      vertex 0 -32.4747 -1.31114
      vertex 0 -44.4042 -5.18727
    endloop
  endfacet
  facet normal -1 0 0
    outer loop
      vertex 0 -75.8806 -24.5866
      vertex 0 -71.9615 -30
      vertex 0 -75.5 -26.5
    endloop
  endfacet
  facet normal -1 0 0
    outer loop
      vertex 0 -71.9615 -30
      vertex 0 -75.8806 -24.5866
      vertex 0 -64.5887 -19.8522
    endloop
  endfacet
  facet normal -1 0 0
    outer loop
      vertex 0 -76.9645 -22.9645
      vertex 0 -64.5887 -19.8522
      vertex 0 -75.8806 -24.5866
    endloop
  endfacet
  facet normal -1 0 0
    outer loop
      vertex 0 -78.5866 -21.8806
      vertex 0 -64.5887 -19.8522
      vertex 0 -76.9645 -22.9645
    endloop
  endfacet
  facet normal -1 0 0
    outer loop
      vertex 0 -64.5887 -19.8522
      vertex 0 -82 -3.5
      vertex 0 -55.2671 -11.459
    endloop
  endfacet
  facet normal -1 -0 0
    outer loop
      vertex 0 -64.5887 -19.8522
      vertex 0 -78.5866 -21.8806
      vertex 0 -82 -3.5
    endloop
  endfacet
  facet normal -1 0 0
    outer loop
      vertex 0 -80 -21.5
      vertex 0 -78.5866 -21.8806
      vertex 0 -80 -21.5995
    endloop
  endfacet
  facet normal -1 0 0
    outer loop
      vertex 0 -82 -3.5
      vertex 0 -78.5866 -21.8806
      vertex 0 -80 -21.5
    endloop
  endfacet
  facet normal -1 0 0
    outer loop
      vertex 0 -82 -3.5
      vertex 0 -80 -21.5
      vertex 0 -82 -21.5
    endloop
  endfacet
  facet normal -1 0 0
    outer loop
      vertex 0 -84 9.7
      vertex 0 -55.2671 -11.459
      vertex 0 -82 -3.5
    endloop
  endfacet
  facet normal -1 0 0
    outer loop
      vertex 0 -55.2671 -11.459
      vertex 0 -84 9.7
      vertex 0 -44.4042 -5.18727
    endloop
  endfacet
  facet normal -1 0 0
    outer loop
      vertex 0 -84 1.5
      vertex 0 -82 -3.5
      vertex 0 -84 -3.5
    endloop
  endfacet
  facet normal -1 0 0
    outer loop
      vertex 0 -84 9.7
      vertex 0 -82 -3.5
      vertex 0 -84 1.5
    endloop
  endfacet
  facet normal -1 0 0
    outer loop
      vertex 0 -32.4747 -1.31114
      vertex 0 -84 9.7
      vertex 0 0 9.7
    endloop
  endfacet
  facet normal -1 0 0
    outer loop
      vertex 0 -112 -3.5
      vertex 0 -84 1.5
      vertex 0 -84 -3.5
    endloop
  endfacet
  facet normal -1 -0 0
    outer loop
      vertex 0 -84 1.5
      vertex 0 -112 -3.5
      vertex 0 -112 1.5
    endloop
  endfacet
  facet normal -1 0 0
    outer loop
      vertex 0 -84 -61
      vertex 0 -80 -60
      vertex 0 -80 -61
    endloop
  endfacet
  facet normal -1 0 0
    outer loop
      vertex 0 -77.0634 -41.459
      vertex 0 -80 -31.5
      vertex 0 -78.5866 -31.1194
    endloop
  endfacet
  facet normal -1 -0 0
    outer loop
      vertex 0 -79.6713 -53.7283
      vertex 0 -84 -61
      vertex 0 -84 -50.2
    endloop
  endfacet
  facet normal -1 0 0
    outer loop
      vertex 0 -79.6713 -53.7283
      vertex 0 -84 -50.2
      vertex 0 -82 -50.2
    endloop
  endfacet
  facet normal -1 0 0
    outer loop
      vertex 0 -77.0634 -41.459
      vertex 0 -82 -31.5
      vertex 0 -80 -31.5
    endloop
  endfacet
  facet normal 0 1 -0
    outer loop
      vertex 111.2 -80 -61
      vertex 101.2 -80 -60
      vertex 111.2 -80 -60
    endloop
  endfacet
  facet normal 0 1 0
    outer loop
      vertex 101.2 -80 -60
      vertex 111.2 -80 -61
      vertex 60.6 -80 -60
    endloop
  endfacet
  facet normal 0 1 0
    outer loop
      vertex 60.6 -80 -60
      vertex 111.2 -80 -61
      vertex 50.6 -80 -60
    endloop
  endfacet
  facet normal 0 1 0
    outer loop
      vertex 0 -80 -61
      vertex 50.6 -80 -60
      vertex 111.2 -80 -61
    endloop
  endfacet
  facet normal 0 1 0
    outer loop
      vertex 50.6 -80 -60
      vertex 0 -80 -61
      vertex 10 -80 -60
    endloop
  endfacet
  facet normal 0 1 0
    outer loop
      vertex 10 -80 -60
      vertex 0 -80 -61
      vertex 0 -80 -60
    endloop
  endfacet
  facet normal 0 1 -0
    outer loop
      vertex 101.2 -80 -60
      vertex 60.6 -80 0
      vertex 101.2 -80 0
    endloop
  endfacet
  facet normal 0 1 0
    outer loop
      vertex 60.6 -80 0
      vertex 101.2 -80 -60
      vertex 60.6 -80 -60
    endloop
  endfacet
  facet normal 0 1 -0
    outer loop
      vertex 50.6 -80 -60
      vertex 10 -80 -31.5
      vertex 50.6 -80 -31.5
    endloop
  endfacet
  facet normal 0 1 0
    outer loop
      vertex 10 -80 -31.5
      vertex 50.6 -80 -60
      vertex 10 -80 -60
    endloop
  endfacet
  facet normal 0 -1 0
    outer loop
      vertex 0 -80 -21.5995
      vertex 10 -80 -21.5
      vertex 0 -80 -21.5
    endloop
  endfacet
  facet normal 0 -1 -0
    outer loop
      vertex 10 -80 -21.5
      vertex 0 -80 -21.5995
      vertex 10 -80 -21.5995
    endloop
  endfacet
  facet normal 0 -1 0
    outer loop
      vertex 0 -80 -31.5
      vertex 10 -80 -31.4005
      vertex 0 -80 -31.4005
    endloop
  endfacet
  facet normal 0 -1 -0
    outer loop
      vertex 10 -80 -31.4005
      vertex 0 -80 -31.5
      vertex 10 -80 -31.5
    endloop
  endfacet
  facet normal 0 1 -0
    outer loop
      vertex 50.6 -80 -21.5
      vertex 10 -80 0
      vertex 50.6 -80 0
    endloop
  endfacet
  facet normal 0 1 0
    outer loop
      vertex 10 -80 0
      vertex 50.6 -80 -21.5
      vertex 10 -80 -21.5
    endloop
  endfacet
  facet normal 0 -1 0
    outer loop
      vertex 0 -84 1.5
      vertex 111.2 -84 9.7
      vertex 0 -84 9.7
    endloop
  endfacet
  facet normal 0 -1 -0
    outer loop
      vertex 111.2 -84 9.7
      vertex 0 -84 1.5
      vertex 111.2 -84 1.5
    endloop
  endfacet
  facet normal 0 -1 0
    outer loop
      vertex 100.5 -84 -41
      vertex 85 -84 -36.5
      vertex 85 -84 -41
    endloop
  endfacet
  facet normal 0 -1 0
    outer loop
      vertex 85 -84 -36.5
      vertex 100.5 -84 -41
      vertex 111.2 -84 -36.5
    endloop
  endfacet
  facet normal 0 -1 0
    outer loop
      vertex 111.2 -84 -61
      vertex 100.5 -84 -41
      vertex 100.5 -84 -61
    endloop
  endfacet
  facet normal 0 -1 0
    outer loop
      vertex 100.5 -84 -41
      vertex 111.2 -84 -61
      vertex 111.2 -84 -36.5
    endloop
  endfacet
  facet normal 0 -1 0
    outer loop
      vertex 0 -84 -50.2
      vertex 0 -84 -61
      vertex 25 -84 -50.2
    endloop
  endfacet
  facet normal 0 -1 0
    outer loop
      vertex 25 -84 -36.5
      vertex 29.5 -84 -41
      vertex 45 -84 -36.5
    endloop
  endfacet
  facet normal 0 -1 0
    outer loop
      vertex 25 -84 -50.2
      vertex 29.5 -84 -41
      vertex 25 -84 -36.5
    endloop
  endfacet
  facet normal 0 -1 0
    outer loop
      vertex 25 -84 -50.2
      vertex 29.5 -84 -61
      vertex 29.5 -84 -41
    endloop
  endfacet
  facet normal 0 -1 0
    outer loop
      vertex 29.5 -84 -61
      vertex 25 -84 -50.2
      vertex 0 -84 -61
    endloop
  endfacet
  facet normal 0 -1 -0
    outer loop
      vertex 45 -84 -36.5
      vertex 29.5 -84 -41
      vertex 45 -84 -41
    endloop
  endfacet
  facet normal 0 -1 0
    outer loop
      vertex 53.3127 -84 -61
      vertex 76.6873 -84 -60.2
      vertex 53.3127 -84 -60.2
    endloop
  endfacet
  facet normal 0 -1 -0
    outer loop
      vertex 76.6873 -84 -60.2
      vertex 53.3127 -84 -61
      vertex 76.6873 -84 -61
    endloop
  endfacet
  facet normal 0 0 -1
    outer loop
      vertex 0 -84 -3.5
      vertex 111.2 -82 -3.5
      vertex 111.2 -84 -3.5
    endloop
  endfacet
  facet normal -0 0 -1
    outer loop
      vertex 111.2 -82 -3.5
      vertex 0 -84 -3.5
      vertex 0 -82 -3.5
    endloop
  endfacet
  facet normal -0 0 1
    outer loop
      vertex 85 -82 -36.5
      vertex 111.2 -84 -36.5
      vertex 111.2 -82 -36.5
    endloop
  endfacet
  facet normal 0 0 1
    outer loop
      vertex 111.2 -84 -36.5
      vertex 85 -82 -36.5
      vertex 85 -84 -36.5
    endloop
  endfacet
  facet normal -0 0 1
    outer loop
      vertex 25 -82 -36.5
      vertex 45 -84 -36.5
      vertex 45 -82 -36.5
    endloop
  endfacet
  facet normal 0 0 1
    outer loop
      vertex 45 -84 -36.5
      vertex 25 -82 -36.5
      vertex 25 -84 -36.5
    endloop
  endfacet
  facet normal 0 -1 0
    outer loop
      vertex 60.2456 -82 -60.2
      vertex 69.7544 -82 -41
      vertex 60.2456 -82 -41
    endloop
  endfacet
  facet normal 0 -1 -0
    outer loop
      vertex 69.7544 -82 -41
      vertex 60.2456 -82 -60.2
      vertex 69.7544 -82 -60.2
    endloop
  endfacet
  facet normal 0 -1 0
    outer loop
      vertex 60.2456 -82 -41
      vertex 50.6 -82 -31.5
      vertex 45 -82 -41
    endloop
  endfacet
  facet normal 0 -1 0
    outer loop
      vertex 69.7544 -82 -41
      vertex 50.6 -82 -31.5
      vertex 60.2456 -82 -41
    endloop
  endfacet
  facet normal 0 -1 0
    outer loop
      vertex 50.6 -82 -31.5
      vertex 69.7544 -82 -41
      vertex 85 -82 -36.5
    endloop
  endfacet
  facet normal 0 -1 -0
    outer loop
      vertex 85 -82 -36.5
      vertex 69.7544 -82 -41
      vertex 85 -82 -41
    endloop
  endfacet
  facet normal 0 -1 0
    outer loop
      vertex 0 -82 -31.5
      vertex 25 -82 -36.5
      vertex 50.6 -82 -31.5
    endloop
  endfacet
  facet normal 0 -1 0
    outer loop
      vertex 0 -82 -50.2
      vertex 25 -82 -36.5
      vertex 0 -82 -31.5
    endloop
  endfacet
  facet normal 0 -1 -0
    outer loop
      vertex 25 -82 -36.5
      vertex 0 -82 -50.2
      vertex 25 -82 -50.2
    endloop
  endfacet
  facet normal 0 -1 0
    outer loop
      vertex 50.6 -82 -21.5
      vertex 0 -82 -3.5
      vertex 0 -82 -21.5
    endloop
  endfacet
  facet normal 0 -1 0
    outer loop
      vertex 0 -82 -3.5
      vertex 50.6 -82 -21.5
      vertex 111.2 -82 -3.5
    endloop
  endfacet
  facet normal 0 -1 0
    outer loop
      vertex 85 -82 -36.5
      vertex 50.6 -82 -21.5
      vertex 50.6 -82 -31.5
    endloop
  endfacet
  facet normal 0 -1 0
    outer loop
      vertex 45 -82 -36.5
      vertex 50.6 -82 -31.5
      vertex 25 -82 -36.5
    endloop
  endfacet
  facet normal 0 -1 0
    outer loop
      vertex 45 -82 -41
      vertex 50.6 -82 -31.5
      vertex 45 -82 -36.5
    endloop
  endfacet
  facet normal 0 -1 0
    outer loop
      vertex 50.6 -82 -21.5
      vertex 85 -82 -36.5
      vertex 111.2 -82 -3.5
    endloop
  endfacet
  facet normal 0 -1 -0
    outer loop
      vertex 111.2 -82 -3.5
      vertex 85 -82 -36.5
      vertex 111.2 -82 -36.5
    endloop
  endfacet
  facet normal -1 0 0
    outer loop
      vertex 25 -84 -50.2
      vertex 25 -82 -36.5
      vertex 25 -82 -50.2
    endloop
  endfacet
  facet normal -1 -0 0
    outer loop
      vertex 25 -82 -36.5
      vertex 25 -84 -50.2
      vertex 25 -84 -36.5
    endloop
  endfacet
  facet normal -0 0 1
    outer loop
      vertex 0 -82 -50.2
      vertex 25 -84 -50.2
      vertex 25 -82 -50.2
    endloop
  endfacet
  facet normal 0 0 1
    outer loop
      vertex 25 -84 -50.2
      vertex 0 -82 -50.2
      vertex 0 -84 -50.2
    endloop
  endfacet
  facet normal -1 0 0
    outer loop
      vertex 85 -84 -41
      vertex 85 -82 -36.5
      vertex 85 -82 -41
    endloop
  endfacet
  facet normal -1 -0 0
    outer loop
      vertex 85 -82 -36.5
      vertex 85 -84 -41
      vertex 85 -84 -36.5
    endloop
  endfacet
  facet normal 0 0 1
    outer loop
      vertex 69.7544 -82 -60.2
      vertex 76.6873 -84 -60.2
      vertex 74.425 -82.9928 -60.2
    endloop
  endfacet
  facet normal -0 0 1
    outer loop
      vertex 60.2456 -82 -60.2
      vertex 76.6873 -84 -60.2
      vertex 69.7544 -82 -60.2
    endloop
  endfacet
  facet normal 0 0 1
    outer loop
      vertex 53.3127 -84 -60.2
      vertex 60.2456 -82 -60.2
      vertex 55.575 -82.9928 -60.2
    endloop
  endfacet
  facet normal 0 0 1
    outer loop
      vertex 60.2456 -82 -60.2
      vertex 53.3127 -84 -60.2
      vertex 76.6873 -84 -60.2
    endloop
  endfacet
  facet normal 1 -0 0
    outer loop
      vertex 45 -84 -36.5
      vertex 45 -82 -41
      vertex 45 -82 -36.5
    endloop
  endfacet
  facet normal 1 0 0
    outer loop
      vertex 45 -82 -41
      vertex 45 -84 -36.5
      vertex 45 -84 -41
    endloop
  endfacet
  facet normal 1 -0 0
    outer loop
      vertex 100.5 -112 -41
      vertex 100.5 -84 -61
      vertex 100.5 -84 -41
    endloop
  endfacet
  facet normal 1 0 0
    outer loop
      vertex 100.5 -84 -61
      vertex 100.5 -112 -41
      vertex 100.5 -112 -61
    endloop
  endfacet
  facet normal -0 0 1
    outer loop
      vertex 45 -82 -41
      vertex 55.575 -82.9928 -41
      vertex 60.2456 -82 -41
    endloop
  endfacet
  facet normal 0 0 1
    outer loop
      vertex 45 -82 -41
      vertex 49.75 -85.5862 -41
      vertex 55.575 -82.9928 -41
    endloop
  endfacet
  facet normal -0 0 1
    outer loop
      vertex 45 -84 -41
      vertex 49.75 -85.5862 -41
      vertex 45 -82 -41
    endloop
  endfacet
  facet normal 0 0 1
    outer loop
      vertex 45 -84 -41
      vertex 44.5915 -89.3341 -41
      vertex 49.75 -85.5862 -41
    endloop
  endfacet
  facet normal -0 0 1
    outer loop
      vertex 29.5 -84 -41
      vertex 44.5915 -89.3341 -41
      vertex 45 -84 -41
    endloop
  endfacet
  facet normal 0 0 1
    outer loop
      vertex 44.5915 -89.3341 -41
      vertex 29.5 -84 -41
      vertex 40.325 -94.0725 -41
    endloop
  endfacet
  facet normal 0 0 1
    outer loop
      vertex 40.325 -94.0725 -41
      vertex 29.5 -84 -41
      vertex 37.1369 -99.5945 -41
    endloop
  endfacet
  facet normal 0 0 1
    outer loop
      vertex 29.5 -84 -41
      vertex 35.1665 -105.659 -41
      vertex 37.1369 -99.5945 -41
    endloop
  endfacet
  facet normal 0 0 1
    outer loop
      vertex 29.5 -112 -41
      vertex 35.1665 -105.659 -41
      vertex 29.5 -84 -41
    endloop
  endfacet
  facet normal 0 0 1
    outer loop
      vertex 35.1665 -105.659 -41
      vertex 29.5 -112 -41
      vertex 34.5 -112 -41
    endloop
  endfacet
  facet normal 0 0 1
    outer loop
      vertex 85 -82 -41
      vertex 80.25 -85.5862 -41
      vertex 85 -84 -41
    endloop
  endfacet
  facet normal 0 0 1
    outer loop
      vertex 85 -82 -41
      vertex 74.425 -82.9928 -41
      vertex 80.25 -85.5862 -41
    endloop
  endfacet
  facet normal 0 -0 1
    outer loop
      vertex 74.425 -82.9928 -41
      vertex 85 -82 -41
      vertex 69.7544 -82 -41
    endloop
  endfacet
  facet normal -0 0 1
    outer loop
      vertex 94.8335 -105.659 -41
      vertex 100.5 -112 -41
      vertex 100.5 -84 -41
    endloop
  endfacet
  facet normal 0 0 1
    outer loop
      vertex 100.5 -112 -41
      vertex 94.8335 -105.659 -41
      vertex 95.5 -112 -41
    endloop
  endfacet
  facet normal 0 0 1
    outer loop
      vertex 100.5 -84 -41
      vertex 92.8631 -99.5945 -41
      vertex 94.8335 -105.659 -41
    endloop
  endfacet
  facet normal 0 0 1
    outer loop
      vertex 100.5 -84 -41
      vertex 89.675 -94.0725 -41
      vertex 92.8631 -99.5945 -41
    endloop
  endfacet
  facet normal 0 0 1
    outer loop
      vertex 100.5 -84 -41
      vertex 85.4085 -89.3341 -41
      vertex 89.675 -94.0725 -41
    endloop
  endfacet
  facet normal -0 0 1
    outer loop
      vertex 85 -84 -41
      vertex 85.4085 -89.3341 -41
      vertex 100.5 -84 -41
    endloop
  endfacet
  facet normal 0 0 1
    outer loop
      vertex 85.4085 -89.3341 -41
      vertex 85 -84 -41
      vertex 80.25 -85.5862 -41
    endloop
  endfacet
  facet normal -1 0 0
    outer loop
      vertex 29.5 -112 -61
      vertex 29.5 -84 -41
      vertex 29.5 -84 -61
    endloop
  endfacet
  facet normal -1 -0 0
    outer loop
      vertex 29.5 -84 -41
      vertex 29.5 -112 -61
      vertex 29.5 -112 -41
    endloop
  endfacet
  facet normal 0 -1 0
    outer loop
      vertex 29.5 -112 -61
      vertex 34.5 -112 -41
      vertex 29.5 -112 -41
    endloop
  endfacet
  facet normal 0 -1 -0
    outer loop
      vertex 34.5 -112 -41
      vertex 29.5 -112 -61
      vertex 34.5 -112 -61
    endloop
  endfacet
  facet normal 0 -1 0
    outer loop
      vertex 95.5 -112 -61
      vertex 100.5 -112 -41
      vertex 95.5 -112 -41
    endloop
  endfacet
  facet normal 0 -1 -0
    outer loop
      vertex 100.5 -112 -41
      vertex 95.5 -112 -61
      vertex 100.5 -112 -61
    endloop
  endfacet
  facet normal -0.95106 -0.309006 0
    outer loop
      vertex 94.8335 -105.659 -61
      vertex 92.8631 -99.5945 -41
      vertex 92.8631 -99.5945 -61
    endloop
  endfacet
  facet normal -0.95106 -0.309006 0
    outer loop
      vertex 92.8631 -99.5945 -41
      vertex 94.8335 -105.659 -61
      vertex 94.8335 -105.659 -41
    endloop
  endfacet
  facet normal -0.587788 -0.809015 0
    outer loop
      vertex 80.25 -85.5862 -61
      vertex 85.4085 -89.3341 -41
      vertex 80.25 -85.5862 -41
    endloop
  endfacet
  facet normal -0.587788 -0.809015 -0
    outer loop
      vertex 85.4085 -89.3341 -41
      vertex 80.25 -85.5862 -61
      vertex 85.4085 -89.3341 -61
    endloop
  endfacet
  facet normal 0.207918 -0.978146 0
    outer loop
      vertex 55.575 -82.9928 -60.2
      vertex 60.2456 -82 -41
      vertex 55.575 -82.9928 -41
    endloop
  endfacet
  facet normal 0.207918 -0.978146 0
    outer loop
      vertex 60.2456 -82 -41
      vertex 55.575 -82.9928 -60.2
      vertex 60.2456 -82 -60.2
    endloop
  endfacet
  facet normal -0.994521 -0.104534 0
    outer loop
      vertex 95.5 -112 -61
      vertex 94.8335 -105.659 -41
      vertex 94.8335 -105.659 -61
    endloop
  endfacet
  facet normal -0.994521 -0.104534 0
    outer loop
      vertex 94.8335 -105.659 -41
      vertex 95.5 -112 -61
      vertex 95.5 -112 -41
    endloop
  endfacet
  facet normal -0.866027 -0.499997 0
    outer loop
      vertex 92.8631 -99.5945 -61
      vertex 89.675 -94.0725 -41
      vertex 89.675 -94.0725 -61
    endloop
  endfacet
  facet normal -0.866027 -0.499997 0
    outer loop
      vertex 89.675 -94.0725 -41
      vertex 92.8631 -99.5945 -61
      vertex 92.8631 -99.5945 -41
    endloop
  endfacet
  facet normal -0.207918 -0.978146 0
    outer loop
      vertex 69.7544 -82 -60.2
      vertex 74.425 -82.9928 -41
      vertex 69.7544 -82 -41
    endloop
  endfacet
  facet normal -0.207918 -0.978146 -0
    outer loop
      vertex 74.425 -82.9928 -41
      vertex 69.7544 -82 -60.2
      vertex 74.425 -82.9928 -60.2
    endloop
  endfacet
  facet normal 0.95106 -0.309006 0
    outer loop
      vertex 35.1665 -105.659 -41
      vertex 37.1369 -99.5945 -61
      vertex 37.1369 -99.5945 -41
    endloop
  endfacet
  facet normal 0.95106 -0.309006 0
    outer loop
      vertex 37.1369 -99.5945 -61
      vertex 35.1665 -105.659 -41
      vertex 35.1665 -105.659 -61
    endloop
  endfacet
  facet normal 0.406729 -0.913549 -8.8888e-07
    outer loop
      vertex 49.75 -85.5862 -41
      vertex 53.3127 -84 -60.2
      vertex 55.575 -82.9928 -41
    endloop
  endfacet
  facet normal 0.406733 -0.913547 0
    outer loop
      vertex 49.75 -85.5862 -61
      vertex 53.3127 -84 -60.2
      vertex 49.75 -85.5862 -41
    endloop
  endfacet
  facet normal 0.406733 -0.913547 0
    outer loop
      vertex 53.3127 -84 -60.2
      vertex 49.75 -85.5862 -61
      vertex 53.3127 -84 -61
    endloop
  endfacet
  facet normal 0.406723 -0.913552 0
    outer loop
      vertex 55.575 -82.9928 -41
      vertex 53.3127 -84 -60.2
      vertex 55.575 -82.9928 -60.2
    endloop
  endfacet
  facet normal -0.406723 -0.913552 0
    outer loop
      vertex 76.6873 -84 -60.2
      vertex 74.425 -82.9928 -41
      vertex 74.425 -82.9928 -60.2
    endloop
  endfacet
  facet normal -0.406729 -0.913549 -8.8888e-07
    outer loop
      vertex 74.425 -82.9928 -41
      vertex 76.6873 -84 -60.2
      vertex 80.25 -85.5862 -41
    endloop
  endfacet
  facet normal -0.406733 -0.913547 0
    outer loop
      vertex 80.25 -85.5862 -61
      vertex 76.6873 -84 -60.2
      vertex 76.6873 -84 -61
    endloop
  endfacet
  facet normal -0.406733 -0.913547 0
    outer loop
      vertex 76.6873 -84 -60.2
      vertex 80.25 -85.5862 -61
      vertex 80.25 -85.5862 -41
    endloop
  endfacet
  facet normal 0.866027 -0.499997 0
    outer loop
      vertex 37.1369 -99.5945 -41
      vertex 40.325 -94.0725 -61
      vertex 40.325 -94.0725 -41
    endloop
  endfacet
  facet normal 0.866027 -0.499997 0
    outer loop
      vertex 40.325 -94.0725 -61
      vertex 37.1369 -99.5945 -41
      vertex 37.1369 -99.5945 -61
    endloop
  endfacet
  facet normal 0.994521 -0.104534 0
    outer loop
      vertex 34.5 -112 -41
      vertex 35.1665 -105.659 -61
      vertex 35.1665 -105.659 -41
    endloop
  endfacet
  facet normal 0.994521 -0.104534 0
    outer loop
      vertex 35.1665 -105.659 -61
      vertex 34.5 -112 -41
      vertex 34.5 -112 -61
    endloop
  endfacet
  facet normal -0.743143 -0.669133 0
    outer loop
      vertex 89.675 -94.0725 -61
      vertex 85.4085 -89.3341 -41
      vertex 85.4085 -89.3341 -61
    endloop
  endfacet
  facet normal -0.743143 -0.669133 0
    outer loop
      vertex 85.4085 -89.3341 -41
      vertex 89.675 -94.0725 -61
      vertex 89.675 -94.0725 -41
    endloop
  endfacet
  facet normal 0.743143 -0.669133 0
    outer loop
      vertex 40.325 -94.0725 -41
      vertex 44.5915 -89.3341 -61
      vertex 44.5915 -89.3341 -41
    endloop
  endfacet
  facet normal 0.743143 -0.669133 0
    outer loop
      vertex 44.5915 -89.3341 -61
      vertex 40.325 -94.0725 -41
      vertex 40.325 -94.0725 -61
    endloop
  endfacet
  facet normal 0.587788 -0.809015 0
    outer loop
      vertex 44.5915 -89.3341 -61
      vertex 49.75 -85.5862 -41
      vertex 44.5915 -89.3341 -41
    endloop
  endfacet
  facet normal 0.587788 -0.809015 0
    outer loop
      vertex 49.75 -85.5862 -41
      vertex 44.5915 -89.3341 -61
      vertex 49.75 -85.5862 -61
    endloop
  endfacet
  facet normal 0 0 1
    outer loop
      vertex 92.6 25 9.7
      vertex 18.6 25 9.7
      vertex 92.6 0 9.7
    endloop
  endfacet
  facet normal -0 0 1
    outer loop
      vertex 92.6 0 9.7
      vertex 111.2 -84 9.7
      vertex 111.2 0 9.7
    endloop
  endfacet
  facet normal 0 0 1
    outer loop
      vertex 18.6 0 9.7
      vertex 92.6 0 9.7
      vertex 18.6 25 9.7
    endloop
  endfacet
  facet normal 0 0 1
    outer loop
      vertex 92.6 0 9.7
      vertex 18.6 0 9.7
      vertex 111.2 -84 9.7
    endloop
  endfacet
  facet normal 0 0 1
    outer loop
      vertex 0 -84 9.7
      vertex 18.6 0 9.7
      vertex 0 0 9.7
    endloop
  endfacet
  facet normal 0 0 1
    outer loop
      vertex 18.6 0 9.7
      vertex 0 -84 9.7
      vertex 111.2 -84 9.7
    endloop
  endfacet
  facet normal 0 0 -1
    outer loop
      vertex 0 -20 0
      vertex 7.59999 30 0
      vertex 10 -20 0
    endloop
  endfacet
  facet normal -0 0 -1
    outer loop
      vertex 7.59999 30 0
      vertex 0 -20 0
      vertex 0 30 0
    endloop
  endfacet
  facet normal 0 0 -1
    outer loop
      vertex 10 -20 0
      vertex 50.6 -20 0
      vertex 50.6 -80 0
    endloop
  endfacet
  facet normal 0 0 -1
    outer loop
      vertex 10 -20 0
      vertex 50.6 -80 0
      vertex 10 -80 0
    endloop
  endfacet
  facet normal 0 0 -1
    outer loop
      vertex 50.6 -20 0
      vertex 10 -20 0
      vertex 18.6 36 0
    endloop
  endfacet
  facet normal 0 0 -1
    outer loop
      vertex 7.59999 30 0
      vertex 18.6 36 0
      vertex 10 -20 0
    endloop
  endfacet
  facet normal -0 0 -1
    outer loop
      vertex 18.6 36 0
      vertex 7.59999 30 0
      vertex 7.59999 36 0
    endloop
  endfacet
  facet normal 0 0 -1
    outer loop
      vertex 60.6 -20 0
      vertex 101.2 -20 0
      vertex 101.2 -80 0
    endloop
  endfacet
  facet normal 0 0 -1
    outer loop
      vertex 60.6 -20 0
      vertex 101.2 -80 0
      vertex 60.6 -80 0
    endloop
  endfacet
  facet normal 0 0 -1
    outer loop
      vertex 101.2 -20 0
      vertex 60.6 -20 0
      vertex 92.6 36 0
    endloop
  endfacet
  facet normal 0 0 -1
    outer loop
      vertex 18.6 36 0
      vertex 92.6 36 0
      vertex 60.6 -20 0
    endloop
  endfacet
  facet normal 0 0 -1
    outer loop
      vertex 18.6 36 0
      vertex 60.6 -20 0
      vertex 50.6 -20 0
    endloop
  endfacet
  facet normal 0 0 -1
    outer loop
      vertex 92.6 36 0
      vertex 18.6 36 0
      vertex 55.6 80 0
    endloop
  endfacet
  facet normal 0 0 -1
    outer loop
      vertex 101.2 -20 0
      vertex 111.2 0 0
      vertex 111.2 -20 0
    endloop
  endfacet
  facet normal 0 0 -1
    outer loop
      vertex 111.2 0 0
      vertex 103.6 30 0
      vertex 111.2 30 0
    endloop
  endfacet
  facet normal 0 0 -1
    outer loop
      vertex 92.6 36 0
      vertex 111.2 0 0
      vertex 101.2 -20 0
    endloop
  endfacet
  facet normal 0 0 -1
    outer loop
      vertex 111.2 0 0
      vertex 92.6 36 0
      vertex 103.6 30 0
    endloop
  endfacet
  facet normal 0 0 -1
    outer loop
      vertex 103.6 30 0
      vertex 92.6 36 0
      vertex 103.6 36 0
    endloop
  endfacet
  facet normal -0 0 1
    outer loop
      vertex 0 -84 1.5
      vertex 111.2 -112 1.5
      vertex 111.2 -84 1.5
    endloop
  endfacet
  facet normal 0 0 1
    outer loop
      vertex 111.2 -112 1.5
      vertex 0 -84 1.5
      vertex 0 -112 1.5
    endloop
  endfacet
  facet normal 0 0 -1
    outer loop
      vertex 0 -112 -3.5
      vertex 111.2 -84 -3.5
      vertex 111.2 -112 -3.5
    endloop
  endfacet
  facet normal -0 0 -1
    outer loop
      vertex 111.2 -84 -3.5
      vertex 0 -112 -3.5
      vertex 0 -84 -3.5
    endloop
  endfacet
  facet normal 0 -1 0
    outer loop
      vertex 0 -112 -3.5
      vertex 111.2 -112 1.5
      vertex 0 -112 1.5
    endloop
  endfacet
  facet normal 0 -1 -0
    outer loop
      vertex 111.2 -112 1.5
      vertex 0 -112 -3.5
      vertex 111.2 -112 -3.5
    endloop
  endfacet
  facet normal -1 0 0
    outer loop
      vertex 50.6 -82 -31.5
      vertex 50.6 -80 -21.5
      vertex 50.6 -80 -31.5
    endloop
  endfacet
  facet normal -1 -0 0
    outer loop
      vertex 50.6 -80 -21.5
      vertex 50.6 -82 -31.5
      vertex 50.6 -82 -21.5
    endloop
  endfacet
  facet normal 0 0 -1
    outer loop
      vertex 50.6 -82 -21.5
      vertex 10 -80 -21.5
      vertex 50.6 -80 -21.5
    endloop
  endfacet
  facet normal 0 0 -1
    outer loop
      vertex 0 -82 -21.5
      vertex 10 -80 -21.5
      vertex 50.6 -82 -21.5
    endloop
  endfacet
  facet normal -0 0 -1
    outer loop
      vertex 10 -80 -21.5
      vertex 0 -82 -21.5
      vertex 0 -80 -21.5
    endloop
  endfacet
  facet normal -0 0 1
    outer loop
      vertex 10 -80 -31.5
      vertex 50.6 -82 -31.5
      vertex 50.6 -80 -31.5
    endloop
  endfacet
  facet normal 0 0 1
    outer loop
      vertex 0 -82 -31.5
      vertex 10 -80 -31.5
      vertex 0 -80 -31.5
    endloop
  endfacet
  facet normal 0 0 1
    outer loop
      vertex 10 -80 -31.5
      vertex 0 -82 -31.5
      vertex 50.6 -82 -31.5
    endloop
  endfacet
  facet normal 1 -0 0
    outer loop
      vertex 60.6 -80 0
      vertex 60.6 -32.4747 -1.31114
      vertex 60.6 -20 0
    endloop
  endfacet
  facet normal 1 0 0
    outer loop
      vertex 60.6 -80 0
      vertex 60.6 -44.4042 -5.18727
      vertex 60.6 -32.4747 -1.31114
    endloop
  endfacet
  facet normal 1 0 0
    outer loop
      vertex 60.6 -80 0
      vertex 60.6 -55.2671 -11.459
      vertex 60.6 -44.4042 -5.18727
    endloop
  endfacet
  facet normal 1 0 0
    outer loop
      vertex 60.6 -80 0
      vertex 60.6 -64.5887 -19.8522
      vertex 60.6 -55.2671 -11.459
    endloop
  endfacet
  facet normal 1 0 0
    outer loop
      vertex 60.6 -80 0
      vertex 60.6 -71.9615 -30
      vertex 60.6 -64.5887 -19.8522
    endloop
  endfacet
  facet normal 1 0 0
    outer loop
      vertex 60.6 -80 0
      vertex 60.6 -77.0634 -41.459
      vertex 60.6 -71.9615 -30
    endloop
  endfacet
  facet normal 1 0 0
    outer loop
      vertex 60.6 -80 0
      vertex 60.6 -79.6713 -53.7283
      vertex 60.6 -77.0634 -41.459
    endloop
  endfacet
  facet normal 1 0 0
    outer loop
      vertex 60.6 -80 -60
      vertex 60.6 -79.6713 -53.7283
      vertex 60.6 -80 0
    endloop
  endfacet
  facet normal 1 0 0
    outer loop
      vertex 60.6 -79.6713 -53.7283
      vertex 60.6 -80 -60
      vertex 60.6 -79.6713 -60
    endloop
  endfacet
  facet normal 0 0 -1
    outer loop
      vertex 50.6 -80 -60
      vertex 60.6 -79.6713 -60
      vertex 60.6 -80 -60
    endloop
  endfacet
  facet normal -0 0 -1
    outer loop
      vertex 60.6 -79.6713 -60
      vertex 50.6 -80 -60
      vertex 50.6 -79.6713 -60
    endloop
  endfacet
  facet normal -1 0 0
    outer loop
      vertex 50.6 -79.6713 -60
      vertex 50.6 -80 -60
      vertex 50.6 -79.6713 -53.7283
    endloop
  endfacet
  facet normal -1 0 0
    outer loop
      vertex 50.6 -80 -31.5
      vertex 50.6 -79.6713 -53.7283
      vertex 50.6 -80 -60
    endloop
  endfacet
  facet normal -1 0 0
    outer loop
      vertex 50.6 -80 -31.5
      vertex 50.6 -77.0634 -41.459
      vertex 50.6 -79.6713 -53.7283
    endloop
  endfacet
  facet normal -1 0 0
    outer loop
      vertex 50.6 -80 -31.5
      vertex 50.6 -71.9615 -30
      vertex 50.6 -77.0634 -41.459
    endloop
  endfacet
  facet normal -1 0 0
    outer loop
      vertex 50.6 -80 -21.5
      vertex 50.6 -71.9615 -30
      vertex 50.6 -80 -31.5
    endloop
  endfacet
  facet normal -1 0 0
    outer loop
      vertex 50.6 -71.9615 -30
      vertex 50.6 -80 -21.5
      vertex 50.6 -64.5887 -19.8522
    endloop
  endfacet
  facet normal -1 0 0
    outer loop
      vertex 50.6 -80 0
      vertex 50.6 -64.5887 -19.8522
      vertex 50.6 -80 -21.5
    endloop
  endfacet
  facet normal -1 0 0
    outer loop
      vertex 50.6 -64.5887 -19.8522
      vertex 50.6 -80 0
      vertex 50.6 -55.2671 -11.459
    endloop
  endfacet
  facet normal -1 0 0
    outer loop
      vertex 50.6 -32.4747 -1.31114
      vertex 50.6 -80 0
      vertex 50.6 -20 0
    endloop
  endfacet
  facet normal -1 0 0
    outer loop
      vertex 50.6 -44.4042 -5.18727
      vertex 50.6 -80 0
      vertex 50.6 -32.4747 -1.31114
    endloop
  endfacet
  facet normal -1 0 0
    outer loop
      vertex 50.6 -55.2671 -11.459
      vertex 50.6 -80 0
      vertex 50.6 -44.4042 -5.18727
    endloop
  endfacet
  facet normal 0 0.104528 -0.994522
    outer loop
      vertex 50.6 -32.4747 -1.31114
      vertex 60.6 -20 0
      vertex 60.6 -32.4747 -1.31114
    endloop
  endfacet
  facet normal 0 0.104528 -0.994522
    outer loop
      vertex 60.6 -20 0
      vertex 50.6 -32.4747 -1.31114
      vertex 50.6 -20 0
    endloop
  endfacet
  facet normal 0 0.309017 -0.951057
    outer loop
      vertex 50.6 -44.4042 -5.18727
      vertex 60.6 -32.4747 -1.31114
      vertex 60.6 -44.4042 -5.18727
    endloop
  endfacet
  facet normal 0 0.309017 -0.951057
    outer loop
      vertex 60.6 -32.4747 -1.31114
      vertex 50.6 -44.4042 -5.18727
      vertex 50.6 -32.4747 -1.31114
    endloop
  endfacet
  facet normal 0 1 -0
    outer loop
      vertex 60.6 -79.6713 -60
      vertex 50.6 -79.6713 -53.7283
      vertex 60.6 -79.6713 -53.7283
    endloop
  endfacet
  facet normal 0 1 0
    outer loop
      vertex 50.6 -79.6713 -53.7283
      vertex 60.6 -79.6713 -60
      vertex 50.6 -79.6713 -60
    endloop
  endfacet
  facet normal 0 0.809017 -0.587785
    outer loop
      vertex 60.6 -71.9615 -30
      vertex 50.6 -64.5887 -19.8522
      vertex 60.6 -64.5887 -19.8522
    endloop
  endfacet
  facet normal 0 0.809017 -0.587785
    outer loop
      vertex 50.6 -64.5887 -19.8522
      vertex 60.6 -71.9615 -30
      vertex 50.6 -71.9615 -30
    endloop
  endfacet
  facet normal 0 0.978148 -0.20791
    outer loop
      vertex 60.6 -79.6713 -53.7283
      vertex 50.6 -77.0634 -41.459
      vertex 60.6 -77.0634 -41.459
    endloop
  endfacet
  facet normal 0 0.978148 -0.20791
    outer loop
      vertex 50.6 -77.0634 -41.459
      vertex 60.6 -79.6713 -53.7283
      vertex 50.6 -79.6713 -53.7283
    endloop
  endfacet
  facet normal 0 0.500002 -0.866024
    outer loop
      vertex 50.6 -55.2671 -11.459
      vertex 60.6 -44.4042 -5.18727
      vertex 60.6 -55.2671 -11.459
    endloop
  endfacet
  facet normal 0 0.500002 -0.866024
    outer loop
      vertex 60.6 -44.4042 -5.18727
      vertex 50.6 -55.2671 -11.459
      vertex 50.6 -44.4042 -5.18727
    endloop
  endfacet
  facet normal 0 0.913545 -0.406738
    outer loop
      vertex 60.6 -77.0634 -41.459
      vertex 50.6 -71.9615 -30
      vertex 60.6 -71.9615 -30
    endloop
  endfacet
  facet normal 0 0.913545 -0.406738
    outer loop
      vertex 50.6 -71.9615 -30
      vertex 60.6 -77.0634 -41.459
      vertex 50.6 -77.0634 -41.459
    endloop
  endfacet
  facet normal 0 0.66913 -0.743145
    outer loop
      vertex 50.6 -64.5887 -19.8522
      vertex 60.6 -55.2671 -11.459
      vertex 60.6 -64.5887 -19.8522
    endloop
  endfacet
  facet normal 0 0.66913 -0.743145
    outer loop
      vertex 60.6 -55.2671 -11.459
      vertex 50.6 -64.5887 -19.8522
      vertex 50.6 -55.2671 -11.459
    endloop
  endfacet
  facet normal 0 0 -1
    outer loop
      vertex 101.2 -80 -60
      vertex 111.2 -79.6713 -60
      vertex 111.2 -80 -60
    endloop
  endfacet
  facet normal -0 0 -1
    outer loop
      vertex 111.2 -79.6713 -60
      vertex 101.2 -80 -60
      vertex 101.2 -79.6713 -60
    endloop
  endfacet
  facet normal -1 0 0
    outer loop
      vertex 101.2 -79.6713 -60
      vertex 101.2 -80 -60
      vertex 101.2 -79.6713 -53.7283
    endloop
  endfacet
  facet normal -1 0 0
    outer loop
      vertex 101.2 -32.4747 -1.31114
      vertex 101.2 -80 0
      vertex 101.2 -20 0
    endloop
  endfacet
  facet normal -1 0 0
    outer loop
      vertex 101.2 -44.4042 -5.18727
      vertex 101.2 -80 0
      vertex 101.2 -32.4747 -1.31114
    endloop
  endfacet
  facet normal -1 0 0
    outer loop
      vertex 101.2 -55.2671 -11.459
      vertex 101.2 -80 0
      vertex 101.2 -44.4042 -5.18727
    endloop
  endfacet
  facet normal -1 0 0
    outer loop
      vertex 101.2 -64.5887 -19.8522
      vertex 101.2 -80 0
      vertex 101.2 -55.2671 -11.459
    endloop
  endfacet
  facet normal -1 0 0
    outer loop
      vertex 101.2 -71.9615 -30
      vertex 101.2 -80 0
      vertex 101.2 -64.5887 -19.8522
    endloop
  endfacet
  facet normal -1 0 0
    outer loop
      vertex 101.2 -77.0634 -41.459
      vertex 101.2 -80 0
      vertex 101.2 -71.9615 -30
    endloop
  endfacet
  facet normal -1 0 0
    outer loop
      vertex 101.2 -79.6713 -53.7283
      vertex 101.2 -80 0
      vertex 101.2 -77.0634 -41.459
    endloop
  endfacet
  facet normal -1 0 0
    outer loop
      vertex 101.2 -80 0
      vertex 101.2 -79.6713 -53.7283
      vertex 101.2 -80 -60
    endloop
  endfacet
  facet normal 0 0.809017 -0.587785
    outer loop
      vertex 111.2 -71.9615 -30
      vertex 101.2 -64.5887 -19.8522
      vertex 111.2 -64.5887 -19.8522
    endloop
  endfacet
  facet normal 0 0.809017 -0.587785
    outer loop
      vertex 101.2 -64.5887 -19.8522
      vertex 111.2 -71.9615 -30
      vertex 101.2 -71.9615 -30
    endloop
  endfacet
  facet normal 0 0.309017 -0.951057
    outer loop
      vertex 101.2 -44.4042 -5.18727
      vertex 111.2 -32.4747 -1.31114
      vertex 111.2 -44.4042 -5.18727
    endloop
  endfacet
  facet normal 0 0.309017 -0.951057
    outer loop
      vertex 111.2 -32.4747 -1.31114
      vertex 101.2 -44.4042 -5.18727
      vertex 101.2 -32.4747 -1.31114
    endloop
  endfacet
  facet normal 0 0.66913 -0.743145
    outer loop
      vertex 101.2 -64.5887 -19.8522
      vertex 111.2 -55.2671 -11.459
      vertex 111.2 -64.5887 -19.8522
    endloop
  endfacet
  facet normal 0 0.66913 -0.743145
    outer loop
      vertex 111.2 -55.2671 -11.459
      vertex 101.2 -64.5887 -19.8522
      vertex 101.2 -55.2671 -11.459
    endloop
  endfacet
  facet normal 0 0.978148 -0.20791
    outer loop
      vertex 111.2 -79.6713 -53.7283
      vertex 101.2 -77.0634 -41.459
      vertex 111.2 -77.0634 -41.459
    endloop
  endfacet
  facet normal 0 0.978148 -0.20791
    outer loop
      vertex 101.2 -77.0634 -41.459
      vertex 111.2 -79.6713 -53.7283
      vertex 101.2 -79.6713 -53.7283
    endloop
  endfacet
  facet normal 0 1 -0
    outer loop
      vertex 111.2 -79.6713 -60
      vertex 101.2 -79.6713 -53.7283
      vertex 111.2 -79.6713 -53.7283
    endloop
  endfacet
  facet normal 0 1 0
    outer loop
      vertex 101.2 -79.6713 -53.7283
      vertex 111.2 -79.6713 -60
      vertex 101.2 -79.6713 -60
    endloop
  endfacet
  facet normal 0 0.104528 -0.994522
    outer loop
      vertex 101.2 -32.4747 -1.31114
      vertex 111.2 -20 0
      vertex 111.2 -32.4747 -1.31114
    endloop
  endfacet
  facet normal 0 0.104528 -0.994522
    outer loop
      vertex 111.2 -20 0
      vertex 101.2 -32.4747 -1.31114
      vertex 101.2 -20 0
    endloop
  endfacet
  facet normal 0 0.500002 -0.866024
    outer loop
      vertex 101.2 -55.2671 -11.459
      vertex 111.2 -44.4042 -5.18727
      vertex 111.2 -55.2671 -11.459
    endloop
  endfacet
  facet normal 0 0.500002 -0.866024
    outer loop
      vertex 111.2 -44.4042 -5.18727
      vertex 101.2 -55.2671 -11.459
      vertex 101.2 -44.4042 -5.18727
    endloop
  endfacet
  facet normal 0 0.913545 -0.406738
    outer loop
      vertex 111.2 -77.0634 -41.459
      vertex 101.2 -71.9615 -30
      vertex 111.2 -71.9615 -30
    endloop
  endfacet
  facet normal 0 0.913545 -0.406738
    outer loop
      vertex 101.2 -71.9615 -30
      vertex 111.2 -77.0634 -41.459
      vertex 101.2 -77.0634 -41.459
    endloop
  endfacet
  facet normal 1 -0 0
    outer loop
      vertex 10 -75.8806 -24.5866
      vertex 10 -71.9615 -30
      vertex 10 -64.5887 -19.8522
    endloop
  endfacet
  facet normal 1 0 0
    outer loop
      vertex 10 -80 0
      vertex 10 -64.5887 -19.8522
      vertex 10 -55.2671 -11.459
    endloop
  endfacet
  facet normal 1 0 0
    outer loop
      vertex 10 -71.9615 -30
      vertex 10 -75.8806 -24.5866
      vertex 10 -75.5 -26.5
    endloop
  endfacet
  facet normal 1 0 0
    outer loop
      vertex 10 -64.5887 -19.8522
      vertex 10 -76.9645 -22.9645
      vertex 10 -75.8806 -24.5866
    endloop
  endfacet
  facet normal 1 0 0
    outer loop
      vertex 10 -80 0
      vertex 10 -55.2671 -11.459
      vertex 10 -44.4042 -5.18727
    endloop
  endfacet
  facet normal 1 0 -0
    outer loop
      vertex 10 -78.5866 -21.8806
      vertex 10 -64.5887 -19.8522
      vertex 10 -80 0
    endloop
  endfacet
  facet normal 1 -0 0
    outer loop
      vertex 10 -80 0
      vertex 10 -32.4747 -1.31114
      vertex 10 -20 0
    endloop
  endfacet
  facet normal 1 0 0
    outer loop
      vertex 10 -80 0
      vertex 10 -44.4042 -5.18727
      vertex 10 -32.4747 -1.31114
    endloop
  endfacet
  facet normal 1 0 0
    outer loop
      vertex 10 -64.5887 -19.8522
      vertex 10 -78.5866 -21.8806
      vertex 10 -76.9645 -22.9645
    endloop
  endfacet
  facet normal 1 -0 0
    outer loop
      vertex 10 -80 -21.5
      vertex 10 -78.5866 -21.8806
      vertex 10 -80 0
    endloop
  endfacet
  facet normal 1 0 0
    outer loop
      vertex 10 -78.5866 -21.8806
      vertex 10 -80 -21.5
      vertex 10 -80 -21.5995
    endloop
  endfacet
  facet normal 1 -0 0
    outer loop
      vertex 10 -75.8806 -28.4134
      vertex 10 -71.9615 -30
      vertex 10 -75.5 -26.5
    endloop
  endfacet
  facet normal 1 0 0
    outer loop
      vertex 10 -76.9645 -30.0355
      vertex 10 -71.9615 -30
      vertex 10 -75.8806 -28.4134
    endloop
  endfacet
  facet normal 1 0 0
    outer loop
      vertex 10 -78.5866 -31.1194
      vertex 10 -71.9615 -30
      vertex 10 -76.9645 -30.0355
    endloop
  endfacet
  facet normal 1 0 0
    outer loop
      vertex 10 -71.9615 -30
      vertex 10 -78.5866 -31.1194
      vertex 10 -77.0634 -41.459
    endloop
  endfacet
  facet normal 1 -0 0
    outer loop
      vertex 10 -80 -31.5
      vertex 10 -77.0634 -41.459
      vertex 10 -78.5866 -31.1194
    endloop
  endfacet
  facet normal 1 0 0
    outer loop
      vertex 10 -80 -31.5
      vertex 10 -78.5866 -31.1194
      vertex 10 -80 -31.4005
    endloop
  endfacet
  facet normal 1 0 0
    outer loop
      vertex 10 -77.0634 -41.459
      vertex 10 -80 -31.5
      vertex 10 -79.6713 -53.7283
    endloop
  endfacet
  facet normal 1 0 0
    outer loop
      vertex 10 -80 -60
      vertex 10 -79.6713 -53.7283
      vertex 10 -80 -31.5
    endloop
  endfacet
  facet normal 1 0 0
    outer loop
      vertex 10 -79.6713 -53.7283
      vertex 10 -80 -60
      vertex 10 -79.6713 -60
    endloop
  endfacet
  facet normal 0 0 -1
    outer loop
      vertex 0 -80 -60
      vertex 10 -79.6713 -60
      vertex 10 -80 -60
    endloop
  endfacet
  facet normal -0 0 -1
    outer loop
      vertex 10 -79.6713 -60
      vertex 0 -80 -60
      vertex 0 -79.6713 -60
    endloop
  endfacet
  facet normal 0 0.104528 -0.994522
    outer loop
      vertex 0 -32.4747 -1.31114
      vertex 10 -20 0
      vertex 10 -32.4747 -1.31114
    endloop
  endfacet
  facet normal 0 0.104528 -0.994522
    outer loop
      vertex 10 -20 0
      vertex 0 -32.4747 -1.31114
      vertex 0 -20 0
    endloop
  endfacet
  facet normal 0 0.309017 -0.951057
    outer loop
      vertex 0 -44.4042 -5.18727
      vertex 10 -32.4747 -1.31114
      vertex 10 -44.4042 -5.18727
    endloop
  endfacet
  facet normal 0 0.309017 -0.951057
    outer loop
      vertex 10 -32.4747 -1.31114
      vertex 0 -44.4042 -5.18727
      vertex 0 -32.4747 -1.31114
    endloop
  endfacet
  facet normal 0 1 -0
    outer loop
      vertex 10 -79.6713 -60
      vertex 0 -79.6713 -53.7283
      vertex 10 -79.6713 -53.7283
    endloop
  endfacet
  facet normal 0 1 0
    outer loop
      vertex 0 -79.6713 -53.7283
      vertex 10 -79.6713 -60
      vertex 0 -79.6713 -60
    endloop
  endfacet
  facet normal 0 0.809017 -0.587785
    outer loop
      vertex 10 -71.9615 -30
      vertex 0 -64.5887 -19.8522
      vertex 10 -64.5887 -19.8522
    endloop
  endfacet
  facet normal 0 0.809017 -0.587785
    outer loop
      vertex 0 -64.5887 -19.8522
      vertex 10 -71.9615 -30
      vertex 0 -71.9615 -30
    endloop
  endfacet
  facet normal 0 0.978148 -0.20791
    outer loop
      vertex 10 -79.6713 -53.7283
      vertex 0 -77.0634 -41.459
      vertex 10 -77.0634 -41.459
    endloop
  endfacet
  facet normal 0 0.978148 -0.20791
    outer loop
      vertex 0 -77.0634 -41.459
      vertex 10 -79.6713 -53.7283
      vertex 0 -79.6713 -53.7283
    endloop
  endfacet
  facet normal 0 0.500002 -0.866024
    outer loop
      vertex 0 -55.2671 -11.459
      vertex 10 -44.4042 -5.18727
      vertex 10 -55.2671 -11.459
    endloop
  endfacet
  facet normal 0 0.500002 -0.866024
    outer loop
      vertex 10 -44.4042 -5.18727
      vertex 0 -55.2671 -11.459
      vertex 0 -44.4042 -5.18727
    endloop
  endfacet
  facet normal 0 0.913545 -0.406738
    outer loop
      vertex 10 -77.0634 -41.459
      vertex 0 -71.9615 -30
      vertex 10 -71.9615 -30
    endloop
  endfacet
  facet normal 0 0.913545 -0.406738
    outer loop
      vertex 0 -71.9615 -30
      vertex 10 -77.0634 -41.459
      vertex 0 -77.0634 -41.459
    endloop
  endfacet
  facet normal 0 0.66913 -0.743145
    outer loop
      vertex 0 -64.5887 -19.8522
      vertex 10 -55.2671 -11.459
      vertex 10 -64.5887 -19.8522
    endloop
  endfacet
  facet normal 0 0.66913 -0.743145
    outer loop
      vertex 10 -55.2671 -11.459
      vertex 0 -64.5887 -19.8522
      vertex 0 -55.2671 -11.459
    endloop
  endfacet
  facet normal 0 -0.555587 0.831458
    outer loop
      vertex 0 -76.9645 -30.0355
      vertex 10 -78.5866 -31.1194
      vertex 10 -76.9645 -30.0355
    endloop
  endfacet
  facet normal 0 -0.555587 0.831458
    outer loop
      vertex 10 -78.5866 -31.1194
      vertex 0 -76.9645 -30.0355
      vertex 0 -78.5866 -31.1194
    endloop
  endfacet
  facet normal 0 -0.831458 0.555587
    outer loop
      vertex 0 -76.9645 -30.0355
      vertex 10 -75.8806 -28.4134
      vertex 0 -75.8806 -28.4134
    endloop
  endfacet
  facet normal 0 -0.831458 0.555587
    outer loop
      vertex 10 -75.8806 -28.4134
      vertex 0 -76.9645 -30.0355
      vertex 10 -76.9645 -30.0355
    endloop
  endfacet
  facet normal 0 -0.555587 -0.831458
    outer loop
      vertex 0 -78.5866 -21.8806
      vertex 10 -76.9645 -22.9645
      vertex 10 -78.5866 -21.8806
    endloop
  endfacet
  facet normal -0 -0.555587 -0.831458
    outer loop
      vertex 10 -76.9645 -22.9645
      vertex 0 -78.5866 -21.8806
      vertex 0 -76.9645 -22.9645
    endloop
  endfacet
  facet normal 0 -0.195062 0.980791
    outer loop
      vertex 0 -78.5866 -31.1194
      vertex 10 -80 -31.4005
      vertex 10 -78.5866 -31.1194
    endloop
  endfacet
  facet normal 0 -0.195062 0.980791
    outer loop
      vertex 10 -80 -31.4005
      vertex 0 -78.5866 -31.1194
      vertex 0 -80 -31.4005
    endloop
  endfacet
  facet normal 0 -0.980785 -0.195091
    outer loop
      vertex 0 -75.5 -26.5
      vertex 10 -75.8806 -24.5866
      vertex 0 -75.8806 -24.5866
    endloop
  endfacet
  facet normal 0 -0.980785 -0.195091
    outer loop
      vertex 10 -75.8806 -24.5866
      vertex 0 -75.5 -26.5
      vertex 10 -75.5 -26.5
    endloop
  endfacet
  facet normal 0 -0.831458 -0.555587
    outer loop
      vertex 0 -75.8806 -24.5866
      vertex 10 -76.9645 -22.9645
      vertex 0 -76.9645 -22.9645
    endloop
  endfacet
  facet normal 0 -0.831458 -0.555587
    outer loop
      vertex 10 -76.9645 -22.9645
      vertex 0 -75.8806 -24.5866
      vertex 10 -75.8806 -24.5866
    endloop
  endfacet
  facet normal 0 -0.195062 -0.980791
    outer loop
      vertex 0 -80 -21.5995
      vertex 10 -78.5866 -21.8806
      vertex 10 -80 -21.5995
    endloop
  endfacet
  facet normal -0 -0.195062 -0.980791
    outer loop
      vertex 10 -78.5866 -21.8806
      vertex 0 -80 -21.5995
      vertex 0 -78.5866 -21.8806
    endloop
  endfacet
  facet normal 0 -0.980785 0.195091
    outer loop
      vertex 0 -75.8806 -28.4134
      vertex 10 -75.5 -26.5
      vertex 0 -75.5 -26.5
    endloop
  endfacet
  facet normal 0 -0.980785 0.195091
    outer loop
      vertex 10 -75.5 -26.5
      vertex 0 -75.8806 -28.4134
      vertex 10 -75.8806 -28.4134
    endloop
  endfacet
  facet normal 0 0 1
    outer loop
      vertex 103.6 36 4
      vertex 92.6 36 4
      vertex 103.6 30 4
    endloop
  endfacet
  facet normal -0 0 1
    outer loop
      vertex 103.6 30 4
      vertex 111.2 0 4
      vertex 111.2 30 4
    endloop
  endfacet
  facet normal 0 0 1
    outer loop
      vertex 92.6 36 4
      vertex 111.2 0 4
      vertex 103.6 30 4
    endloop
  endfacet
  facet normal 0 0 1
    outer loop
      vertex 18.6 36 4
      vertex 92.6 36 4
      vertex 55.6 80 4
    endloop
  endfacet
  facet normal 0 0 1
    outer loop
      vertex 92.6 36 4
      vertex 18.6 36 4
      vertex 111.2 0 4
    endloop
  endfacet
  facet normal 0 0 1
    outer loop
      vertex 7.59999 30 4
      vertex 18.6 36 4
      vertex 7.59999 36 4
    endloop
  endfacet
  facet normal 0 0 1
    outer loop
      vertex 0 0 4
      vertex 18.6 36 4
      vertex 7.59999 30 4
    endloop
  endfacet
  facet normal 0 0 1
    outer loop
      vertex 0 0 4
      vertex 7.59999 30 4
      vertex 0 30 4
    endloop
  endfacet
  facet normal 0 0 1
    outer loop
      vertex 18.6 36 4
      vertex 0 0 4
      vertex 111.2 0 4
    endloop
  endfacet
  facet normal 0 1 -0
    outer loop
      vertex 111.2 30 0
      vertex 103.6 30 4
      vertex 111.2 30 4
    endloop
  endfacet
  facet normal 0 1 0
    outer loop
      vertex 103.6 30 4
      vertex 111.2 30 0
      vertex 103.6 30 0
    endloop
  endfacet
  facet normal 1 -0 0
    outer loop
      vertex 103.6 30 4
      vertex 103.6 36 0
      vertex 103.6 36 4
    endloop
  endfacet
  facet normal 1 0 0
    outer loop
      vertex 103.6 36 0
      vertex 103.6 30 4
      vertex 103.6 30 0
    endloop
  endfacet
  facet normal 0 1 -0
    outer loop
      vertex 103.6 36 0
      vertex 92.6 36 4
      vertex 103.6 36 4
    endloop
  endfacet
  facet normal 0 1 0
    outer loop
      vertex 92.6 36 4
      vertex 103.6 36 0
      vertex 92.6 36 0
    endloop
  endfacet
  facet normal 0.765362 0.6436 0
    outer loop
      vertex 92.6 36 4
      vertex 55.6 80 0
      vertex 55.6 80 4
    endloop
  endfacet
  facet normal 0.765362 0.6436 0
    outer loop
      vertex 55.6 80 0
      vertex 92.6 36 4
      vertex 92.6 36 0
    endloop
  endfacet
  facet normal -0.765362 0.6436 0
    outer loop
      vertex 18.6 36 0
      vertex 55.6 80 4
      vertex 55.6 80 0
    endloop
  endfacet
  facet normal -0.765362 0.6436 0
    outer loop
      vertex 55.6 80 4
      vertex 18.6 36 0
      vertex 18.6 36 4
    endloop
  endfacet
  facet normal 0 1 -0
    outer loop
      vertex 18.6 36 0
      vertex 7.59999 36 4
      vertex 18.6 36 4
    endloop
  endfacet
  facet normal 0 1 0
    outer loop
      vertex 7.59999 36 4
      vertex 18.6 36 0
      vertex 7.59999 36 0
    endloop
  endfacet
  facet normal -1 0 0
    outer loop
      vertex 7.59999 30 0
      vertex 7.59999 36 4
      vertex 7.59999 36 0
    endloop
  endfacet
  facet normal -1 -0 0
    outer loop
      vertex 7.59999 36 4
      vertex 7.59999 30 0
      vertex 7.59999 30 4
    endloop
  endfacet
  facet normal 0 1 -0
    outer loop
      vertex 7.59999 30 0
      vertex 0 30 4
      vertex 7.59999 30 4
    endloop
  endfacet
  facet normal 0 1 0
    outer loop
      vertex 0 30 4
      vertex 7.59999 30 0
      vertex 0 30 0
    endloop
  endfacet
  facet normal 0 1 0
    outer loop
      vertex 111.2 0 9.7
      vertex 92.6 0 5.7
      vertex 92.6 0 9.7
    endloop
  endfacet
  facet normal 0 1 0
    outer loop
      vertex 92.6 0 5.7
      vertex 111.2 0 4
      vertex 18.6 0 5.7
    endloop
  endfacet
  facet normal 0 1 -0
    outer loop
      vertex 111.2 0 4
      vertex 92.6 0 5.7
      vertex 111.2 0 9.7
    endloop
  endfacet
  facet normal 0 1 -0
    outer loop
      vertex 18.6 0 5.7
      vertex 0 0 9.7
      vertex 18.6 0 9.7
    endloop
  endfacet
  facet normal 0 1 0
    outer loop
      vertex 18.6 0 5.7
      vertex 0 0 4
      vertex 0 0 9.7
    endloop
  endfacet
  facet normal 0 1 0
    outer loop
      vertex 0 0 4
      vertex 18.6 0 5.7
      vertex 111.2 0 4
    endloop
  endfacet
  facet normal -0 0 0
    outer loop
      vertex 111.2 0 4
      vertex 111.2 0 9.7
      vertex 111.2 0 0
    endloop
  endfacet
  facet normal 1 -0 0
    outer loop
      vertex 111.2 0 4
      vertex 111.2 30 0
      vertex 111.2 30 4
    endloop
  endfacet
  facet normal 1 0 0
    outer loop
      vertex 111.2 30 0
      vertex 111.2 0 4
      vertex 111.2 0 0
    endloop
  endfacet
  facet normal 1 -0 0
    outer loop
      vertex 92.6 0 9.7
      vertex 92.6 25 5.7
      vertex 92.6 25 9.7
    endloop
  endfacet
  facet normal 1 0 0
    outer loop
      vertex 92.6 25 5.7
      vertex 92.6 0 9.7
      vertex 92.6 0 5.7
    endloop
  endfacet
  facet normal 0 0 -1
    outer loop
      vertex 18.6 0 5.7
      vertex 92.6 25 5.7
      vertex 92.6 0 5.7
    endloop
  endfacet
  facet normal -0 0 -1
    outer loop
      vertex 92.6 25 5.7
      vertex 18.6 0 5.7
      vertex 18.6 25 5.7
    endloop
  endfacet
  facet normal -1 0 0
    outer loop
      vertex 18.6 0 5.7
      vertex 18.6 25 9.7
      vertex 18.6 25 5.7
    endloop
  endfacet
  facet normal -1 -0 0
    outer loop
      vertex 18.6 25 9.7
      vertex 18.6 0 5.7
      vertex 18.6 0 9.7
    endloop
  endfacet
  facet normal 0 1 -0
    outer loop
      vertex 92.6 25 5.7
      vertex 18.6 25 9.7
      vertex 92.6 25 9.7
    endloop
  endfacet
  facet normal 0 1 0
    outer loop
      vertex 18.6 25 9.7
      vertex 92.6 25 5.7
      vertex 18.6 25 5.7
    endloop
  endfacet
endsolid OpenSCAD_Model
