solid OpenSCAD_Model
  facet normal 0 0 -1
    outer loop
      vertex 92.6 36 0
      vertex 111.2 0 0
      vertex 111.2 -4 0
    endloop
  endfacet
  facet normal 0 0 -1
    outer loop
      vertex 111.2 0 0
      vertex 103.6 30 0
      vertex 111.2 30 0
    endloop
  endfacet
  facet normal 0 0 -1
    outer loop
      vertex 103.6 30 0
      vertex 92.6 36 0
      vertex 103.6 36 0
    endloop
  endfacet
  facet normal 0 0 -1
    outer loop
      vertex 111.2 0 0
      vertex 92.6 36 0
      vertex 103.6 30 0
    endloop
  endfacet
  facet normal 0 0 -1
    outer loop
      vertex 18.6 36 0
      vertex 92.6 36 0
      vertex 111.2 -4 0
    endloop
  endfacet
  facet normal 0 0 -1
    outer loop
      vertex 92.6 36 0
      vertex 18.6 36 0
      vertex 55.6 80 0
    endloop
  endfacet
  facet normal 0 0 -1
    outer loop
      vertex 0 -4 0
      vertex 18.6 36 0
      vertex 111.2 -4 0
    endloop
  endfacet
  facet normal 0 0 -1
    outer loop
      vertex 18.6 36 0
      vertex 0 -4 0
      vertex 7.59999 30 0
    endloop
  endfacet
  facet normal -0 0 -1
    outer loop
      vertex 7.59999 30 0
      vertex 0 -4 0
      vertex 0 30 0
    endloop
  endfacet
  facet normal -0 0 -1
    outer loop
      vertex 18.6 36 0
      vertex 7.59999 30 0
      vertex 7.59999 36 0
    endloop
  endfacet
  facet normal 0 0 1
    outer loop
      vertex 103.6 36 4
      vertex 92.6 36 4
      vertex 103.6 30 4
    endloop
  endfacet
  facet normal -0 0 1
    outer loop
      vertex 103.6 30 4
      vertex 111.2 0 4
      vertex 111.2 30 4
    endloop
  endfacet
  facet normal 0 0 1
    outer loop
      vertex 92.6 36 4
      vertex 111.2 0 4
      vertex 103.6 30 4
    endloop
  endfacet
  facet normal 0 0 1
    outer loop
      vertex 18.6 36 4
      vertex 92.6 36 4
      vertex 55.6 80 4
    endloop
  endfacet
  facet normal 0 0 1
    outer loop
      vertex 92.6 36 4
      vertex 18.6 36 4
      vertex 111.2 0 4
    endloop
  endfacet
  facet normal 0 0 1
    outer loop
      vertex 7.59999 30 4
      vertex 18.6 36 4
      vertex 7.59999 36 4
    endloop
  endfacet
  facet normal 0 0 1
    outer loop
      vertex 0 0 4
      vertex 18.6 36 4
      vertex 7.59999 30 4
    endloop
  endfacet
  facet normal 0 0 1
    outer loop
      vertex 0 0 4
      vertex 7.59999 30 4
      vertex 0 30 4
    endloop
  endfacet
  facet normal 0 0 1
    outer loop
      vertex 18.6 36 4
      vertex 0 0 4
      vertex 111.2 0 4
    endloop
  endfacet
  facet normal 0 1 -0
    outer loop
      vertex 111.2 30 0
      vertex 103.6 30 4
      vertex 111.2 30 4
    endloop
  endfacet
  facet normal 0 1 0
    outer loop
      vertex 103.6 30 4
      vertex 111.2 30 0
      vertex 103.6 30 0
    endloop
  endfacet
  facet normal 1 -0 0
    outer loop
      vertex 103.6 30 4
      vertex 103.6 36 0
      vertex 103.6 36 4
    endloop
  endfacet
  facet normal 1 0 0
    outer loop
      vertex 103.6 36 0
      vertex 103.6 30 4
      vertex 103.6 30 0
    endloop
  endfacet
  facet normal 0 1 -0
    outer loop
      vertex 103.6 36 0
      vertex 92.6 36 4
      vertex 103.6 36 4
    endloop
  endfacet
  facet normal 0 1 0
    outer loop
      vertex 92.6 36 4
      vertex 103.6 36 0
      vertex 92.6 36 0
    endloop
  endfacet
  facet normal 0.765362 0.6436 0
    outer loop
      vertex 92.6 36 4
      vertex 55.6 80 0
      vertex 55.6 80 4
    endloop
  endfacet
  facet normal 0.765362 0.6436 0
    outer loop
      vertex 55.6 80 0
      vertex 92.6 36 4
      vertex 92.6 36 0
    endloop
  endfacet
  facet normal -0.765362 0.6436 0
    outer loop
      vertex 18.6 36 0
      vertex 55.6 80 4
      vertex 55.6 80 0
    endloop
  endfacet
  facet normal -0.765362 0.6436 0
    outer loop
      vertex 55.6 80 4
      vertex 18.6 36 0
      vertex 18.6 36 4
    endloop
  endfacet
  facet normal 0 1 -0
    outer loop
      vertex 18.6 36 0
      vertex 7.59999 36 4
      vertex 18.6 36 4
    endloop
  endfacet
  facet normal 0 1 0
    outer loop
      vertex 7.59999 36 4
      vertex 18.6 36 0
      vertex 7.59999 36 0
    endloop
  endfacet
  facet normal -1 0 0
    outer loop
      vertex 7.59999 30 0
      vertex 7.59999 36 4
      vertex 7.59999 36 0
    endloop
  endfacet
  facet normal -1 -0 0
    outer loop
      vertex 7.59999 36 4
      vertex 7.59999 30 0
      vertex 7.59999 30 4
    endloop
  endfacet
  facet normal 0 1 -0
    outer loop
      vertex 7.59999 30 0
      vertex 0 30 4
      vertex 7.59999 30 4
    endloop
  endfacet
  facet normal 0 1 0
    outer loop
      vertex 0 30 4
      vertex 7.59999 30 0
      vertex 0 30 0
    endloop
  endfacet
  facet normal -1 0 0
    outer loop
      vertex 0 30 0
      vertex 0 0 4
      vertex 0 30 4
    endloop
  endfacet
  facet normal -1 0 0
    outer loop
      vertex 0 -4 0
      vertex 0 0 4
      vertex 0 30 0
    endloop
  endfacet
  facet normal -1 0 0
    outer loop
      vertex 0 -4 9.7
      vertex 0 0 4
      vertex 0 -4 0
    endloop
  endfacet
  facet normal -1 0 0
    outer loop
      vertex 0 0 4
      vertex 0 -4 9.7
      vertex 0 0 9.7
    endloop
  endfacet
  facet normal 0 1 0
    outer loop
      vertex 111.2 0 9.7
      vertex 92.6 0 5.7
      vertex 92.6 0 9.7
    endloop
  endfacet
  facet normal 0 1 0
    outer loop
      vertex 92.6 0 5.7
      vertex 111.2 0 4
      vertex 18.6 0 5.7
    endloop
  endfacet
  facet normal 0 1 -0
    outer loop
      vertex 111.2 0 4
      vertex 92.6 0 5.7
      vertex 111.2 0 9.7
    endloop
  endfacet
  facet normal 0 1 -0
    outer loop
      vertex 18.6 0 5.7
      vertex 0 0 9.7
      vertex 18.6 0 9.7
    endloop
  endfacet
  facet normal 0 1 0
    outer loop
      vertex 18.6 0 5.7
      vertex 0 0 4
      vertex 0 0 9.7
    endloop
  endfacet
  facet normal 0 1 0
    outer loop
      vertex 0 0 4
      vertex 18.6 0 5.7
      vertex 111.2 0 4
    endloop
  endfacet
  facet normal -0 0 0
    outer loop
      vertex 111.2 0 4
      vertex 111.2 0 9.7
      vertex 111.2 0 0
    endloop
  endfacet
  facet normal 1 -0 0
    outer loop
      vertex 111.2 0 4
      vertex 111.2 30 0
      vertex 111.2 30 4
    endloop
  endfacet
  facet normal 1 0 0
    outer loop
      vertex 111.2 30 0
      vertex 111.2 0 4
      vertex 111.2 0 0
    endloop
  endfacet
  facet normal 1 -0 0
    outer loop
      vertex 111.2 -4 9.7
      vertex 111.2 0 0
      vertex 111.2 0 9.7
    endloop
  endfacet
  facet normal 1 0 0
    outer loop
      vertex 111.2 0 0
      vertex 111.2 -4 9.7
      vertex 111.2 -4 0
    endloop
  endfacet
  facet normal 0 0 1
    outer loop
      vertex 92.6 25 9.7
      vertex 18.6 25 9.7
      vertex 92.6 0 9.7
    endloop
  endfacet
  facet normal -0 0 1
    outer loop
      vertex 92.6 0 9.7
      vertex 111.2 -4 9.7
      vertex 111.2 0 9.7
    endloop
  endfacet
  facet normal 0 0 1
    outer loop
      vertex 18.6 0 9.7
      vertex 92.6 0 9.7
      vertex 18.6 25 9.7
    endloop
  endfacet
  facet normal -0 0 1
    outer loop
      vertex 18.6 0 9.7
      vertex 111.2 -4 9.7
      vertex 92.6 0 9.7
    endloop
  endfacet
  facet normal 0 0 1
    outer loop
      vertex 0 -4 9.7
      vertex 18.6 0 9.7
      vertex 0 0 9.7
    endloop
  endfacet
  facet normal 0 0 1
    outer loop
      vertex 18.6 0 9.7
      vertex 0 -4 9.7
      vertex 111.2 -4 9.7
    endloop
  endfacet
  facet normal 0 -1 0
    outer loop
      vertex 0 -4 0
      vertex 111.2 -4 9.7
      vertex 0 -4 9.7
    endloop
  endfacet
  facet normal 0 -1 -0
    outer loop
      vertex 111.2 -4 9.7
      vertex 0 -4 0
      vertex 111.2 -4 0
    endloop
  endfacet
  facet normal 1 -0 0
    outer loop
      vertex 92.6 0 9.7
      vertex 92.6 25 5.7
      vertex 92.6 25 9.7
    endloop
  endfacet
  facet normal 1 0 0
    outer loop
      vertex 92.6 25 5.7
      vertex 92.6 0 9.7
      vertex 92.6 0 5.7
    endloop
  endfacet
  facet normal 0 0 -1
    outer loop
      vertex 18.6 0 5.7
      vertex 92.6 25 5.7
      vertex 92.6 0 5.7
    endloop
  endfacet
  facet normal -0 0 -1
    outer loop
      vertex 92.6 25 5.7
      vertex 18.6 0 5.7
      vertex 18.6 25 5.7
    endloop
  endfacet
  facet normal -1 0 0
    outer loop
      vertex 18.6 0 5.7
      vertex 18.6 25 9.7
      vertex 18.6 25 5.7
    endloop
  endfacet
  facet normal -1 -0 0
    outer loop
      vertex 18.6 25 9.7
      vertex 18.6 0 5.7
      vertex 18.6 0 9.7
    endloop
  endfacet
  facet normal 0 1 -0
    outer loop
      vertex 92.6 25 5.7
      vertex 18.6 25 9.7
      vertex 92.6 25 9.7
    endloop
  endfacet
  facet normal 0 1 0
    outer loop
      vertex 18.6 25 9.7
      vertex 92.6 25 5.7
      vertex 18.6 25 5.7
    endloop
  endfacet
endsolid OpenSCAD_Model
