solid OpenSCAD_Model
  facet normal 1 0 0
    outer loop
      vertex 111.2 0 9.7
      vertex 111.2 -80 0
      vertex 111.2 0 0
    endloop
  endfacet
  facet normal 1 0 0
    outer loop
      vertex 111.2 -82 -36.3
      vertex 111.2 -80 0
      vertex 111.2 -82 -2.3
    endloop
  endfacet
  facet normal 1 -0 0
    outer loop
      vertex 111.2 -84 9.7
      vertex 111.2 -80 0
      vertex 111.2 0 9.7
    endloop
  endfacet
  facet normal 1 0 0
    outer loop
      vertex 111.2 -84 -2.3
      vertex 111.2 -80 0
      vertex 111.2 -84 9.7
    endloop
  endfacet
  facet normal 1 0 0
    outer loop
      vertex 111.2 -80 0
      vertex 111.2 -84 -2.3
      vertex 111.2 -82 -2.3
    endloop
  endfacet
  facet normal 1 0 0
    outer loop
      vertex 111.2 -80 0
      vertex 111.2 -82 -36.3
      vertex 111.2 -80 -61
    endloop
  endfacet
  facet normal 1 0 0
    outer loop
      vertex 111.2 -84 -61
      vertex 111.2 -82 -36.3
      vertex 111.2 -84 -36.3
    endloop
  endfacet
  facet normal 1 0 0
    outer loop
      vertex 111.2 -82 -36.3
      vertex 111.2 -84 -61
      vertex 111.2 -80 -61
    endloop
  endfacet
  facet normal 0 0 -1
    outer loop
      vertex 40 -84 -61
      vertex 0 -84 -61
      vertex 40 -82 -61
    endloop
  endfacet
  facet normal 0 0 -1
    outer loop
      vertex 80 -82 -61
      vertex 111.2 -84 -61
      vertex 80 -84 -61
    endloop
  endfacet
  facet normal 0 0 -1
    outer loop
      vertex 111.2 -84 -61
      vertex 80 -82 -61
      vertex 111.2 -80 -61
    endloop
  endfacet
  facet normal 0 0 -1
    outer loop
      vertex 40 -82 -61
      vertex 111.2 -80 -61
      vertex 80 -82 -61
    endloop
  endfacet
  facet normal 0 0 -1
    outer loop
      vertex 40 -82 -61
      vertex 0 -80 -61
      vertex 111.2 -80 -61
    endloop
  endfacet
  facet normal 0 0 -1
    outer loop
      vertex 0 -80 -61
      vertex 40 -82 -61
      vertex 0 -84 -61
    endloop
  endfacet
  facet normal -1 0 0
    outer loop
      vertex 0 -80 -61
      vertex 0 -82 -51.2
      vertex 0 -80 0
    endloop
  endfacet
  facet normal -1 0 0
    outer loop
      vertex 0 -84 -61
      vertex 0 -82 -51.2
      vertex 0 -80 -61
    endloop
  endfacet
  facet normal -1 -0 0
    outer loop
      vertex 0 -82 -51.2
      vertex 0 -84 -61
      vertex 0 -84 -51.2
    endloop
  endfacet
  facet normal -1 0 0
    outer loop
      vertex 0 30 0
      vertex 0 0 4
      vertex 0 30 4
    endloop
  endfacet
  facet normal -1 0 0
    outer loop
      vertex 0 -80 0
      vertex 0 0 4
      vertex 0 30 0
    endloop
  endfacet
  facet normal -1 0 0
    outer loop
      vertex 0 -80 0
      vertex 0 0 9.7
      vertex 0 0 4
    endloop
  endfacet
  facet normal -1 0 0
    outer loop
      vertex 0 -82 -2.3
      vertex 0 -80 0
      vertex 0 -82 -51.2
    endloop
  endfacet
  facet normal -1 0 0
    outer loop
      vertex 0 -84 -2.3
      vertex 0 -80 0
      vertex 0 -82 -2.3
    endloop
  endfacet
  facet normal -1 0 0
    outer loop
      vertex 0 -80 0
      vertex 0 -84 9.7
      vertex 0 0 9.7
    endloop
  endfacet
  facet normal -1 0 0
    outer loop
      vertex 0 -84 9.7
      vertex 0 -80 0
      vertex 0 -84 -2.3
    endloop
  endfacet
  facet normal 0 1 0
    outer loop
      vertex 111.2 -80 0
      vertex 57.6 -80 -60
      vertex 57.6 -80 0
    endloop
  endfacet
  facet normal 0 1 0
    outer loop
      vertex 57.6 -80 -60
      vertex 111.2 -80 -61
      vertex 53.6 -80 -60
    endloop
  endfacet
  facet normal 0 1 -0
    outer loop
      vertex 111.2 -80 -61
      vertex 57.6 -80 -60
      vertex 111.2 -80 0
    endloop
  endfacet
  facet normal 0 1 0
    outer loop
      vertex 53.6 -80 -25
      vertex 53.6 -80 -60
      vertex 30 -80 -25
    endloop
  endfacet
  facet normal 0 1 0
    outer loop
      vertex 30 -80 -15
      vertex 53.6 -80 0
      vertex 53.6 -80 -15
    endloop
  endfacet
  facet normal 0 1 0
    outer loop
      vertex 53.6 -80 0
      vertex 30 -80 -15
      vertex 0 -80 0
    endloop
  endfacet
  facet normal 0 1 -0
    outer loop
      vertex 30 -80 -25
      vertex 0 -80 0
      vertex 30 -80 -15
    endloop
  endfacet
  facet normal 0 1 0
    outer loop
      vertex 0 -80 -61
      vertex 30 -80 -25
      vertex 53.6 -80 -60
    endloop
  endfacet
  facet normal 0 1 0
    outer loop
      vertex 30 -80 -25
      vertex 0 -80 -61
      vertex 0 -80 0
    endloop
  endfacet
  facet normal 0 1 0
    outer loop
      vertex 0 -80 -61
      vertex 53.6 -80 -60
      vertex 111.2 -80 -61
    endloop
  endfacet
  facet normal 0 -1 0
    outer loop
      vertex 0 -84 -2.3
      vertex 111.2 -84 9.7
      vertex 0 -84 9.7
    endloop
  endfacet
  facet normal 0 -1 -0
    outer loop
      vertex 111.2 -84 9.7
      vertex 0 -84 -2.3
      vertex 111.2 -84 -2.3
    endloop
  endfacet
  facet normal 0 -1 0
    outer loop
      vertex 80 -84 -61
      vertex 111.2 -84 -36.3
      vertex 80 -84 -36.3
    endloop
  endfacet
  facet normal 0 -1 -0
    outer loop
      vertex 111.2 -84 -36.3
      vertex 80 -84 -61
      vertex 111.2 -84 -61
    endloop
  endfacet
  facet normal 0 -1 0
    outer loop
      vertex 0 -84 -51.2
      vertex 0 -84 -61
      vertex 30 -84 -51.2
    endloop
  endfacet
  facet normal 0 -1 0
    outer loop
      vertex 30 -84 -51.2
      vertex 40 -84 -36.3
      vertex 30 -84 -36.3
    endloop
  endfacet
  facet normal 0 -1 0
    outer loop
      vertex 30 -84 -51.2
      vertex 40 -84 -61
      vertex 40 -84 -36.3
    endloop
  endfacet
  facet normal 0 -1 0
    outer loop
      vertex 40 -84 -61
      vertex 30 -84 -51.2
      vertex 0 -84 -61
    endloop
  endfacet
  facet normal 0 0 -1
    outer loop
      vertex 0 -84 -2.3
      vertex 111.2 -82 -2.3
      vertex 111.2 -84 -2.3
    endloop
  endfacet
  facet normal -0 0 -1
    outer loop
      vertex 111.2 -82 -2.3
      vertex 0 -84 -2.3
      vertex 0 -82 -2.3
    endloop
  endfacet
  facet normal -0 0 1
    outer loop
      vertex 80 -82 -36.3
      vertex 111.2 -84 -36.3
      vertex 111.2 -82 -36.3
    endloop
  endfacet
  facet normal 0 0 1
    outer loop
      vertex 111.2 -84 -36.3
      vertex 80 -82 -36.3
      vertex 80 -84 -36.3
    endloop
  endfacet
  facet normal -0 0 1
    outer loop
      vertex 30 -82 -36.3
      vertex 40 -84 -36.3
      vertex 40 -82 -36.3
    endloop
  endfacet
  facet normal 0 0 1
    outer loop
      vertex 40 -84 -36.3
      vertex 30 -82 -36.3
      vertex 30 -84 -36.3
    endloop
  endfacet
  facet normal 0 -1 0
    outer loop
      vertex 40 -82 -61
      vertex 80 -82 -36.3
      vertex 40 -82 -36.3
    endloop
  endfacet
  facet normal 0 -1 -0
    outer loop
      vertex 80 -82 -36.3
      vertex 40 -82 -61
      vertex 80 -82 -61
    endloop
  endfacet
  facet normal 0 -1 0
    outer loop
      vertex 53.6 -82 -15
      vertex 0 -82 -2.3
      vertex 30 -82 -15
    endloop
  endfacet
  facet normal 0 -1 0
    outer loop
      vertex 0 -82 -2.3
      vertex 30 -82 -25
      vertex 30 -82 -15
    endloop
  endfacet
  facet normal 0 -1 0
    outer loop
      vertex 40 -82 -36.3
      vertex 30 -82 -25
      vertex 30 -82 -36.3
    endloop
  endfacet
  facet normal 0 -1 0
    outer loop
      vertex 0 -82 -51.2
      vertex 30 -82 -25
      vertex 0 -82 -2.3
    endloop
  endfacet
  facet normal 0 -1 -0
    outer loop
      vertex 30 -82 -25
      vertex 0 -82 -51.2
      vertex 30 -82 -36.3
    endloop
  endfacet
  facet normal 0 -1 -0
    outer loop
      vertex 30 -82 -36.3
      vertex 0 -82 -51.2
      vertex 30 -82 -51.2
    endloop
  endfacet
  facet normal 0 -1 0
    outer loop
      vertex 0 -82 -2.3
      vertex 53.6 -82 -15
      vertex 111.2 -82 -2.3
    endloop
  endfacet
  facet normal 0 -1 0
    outer loop
      vertex 80 -82 -36.3
      vertex 53.6 -82 -15
      vertex 53.6 -82 -25
    endloop
  endfacet
  facet normal 0 -1 0
    outer loop
      vertex 30 -82 -25
      vertex 40 -82 -36.3
      vertex 53.6 -82 -25
    endloop
  endfacet
  facet normal 0 -1 0
    outer loop
      vertex 80 -82 -36.3
      vertex 53.6 -82 -25
      vertex 40 -82 -36.3
    endloop
  endfacet
  facet normal 0 -1 0
    outer loop
      vertex 53.6 -82 -15
      vertex 80 -82 -36.3
      vertex 111.2 -82 -2.3
    endloop
  endfacet
  facet normal 0 -1 -0
    outer loop
      vertex 111.2 -82 -2.3
      vertex 80 -82 -36.3
      vertex 111.2 -82 -36.3
    endloop
  endfacet
  facet normal -1 0 0
    outer loop
      vertex 30 -84 -51.2
      vertex 30 -82 -36.3
      vertex 30 -82 -51.2
    endloop
  endfacet
  facet normal -1 -0 0
    outer loop
      vertex 30 -82 -36.3
      vertex 30 -84 -51.2
      vertex 30 -84 -36.3
    endloop
  endfacet
  facet normal -0 0 1
    outer loop
      vertex 0 -82 -51.2
      vertex 30 -84 -51.2
      vertex 30 -82 -51.2
    endloop
  endfacet
  facet normal 0 0 1
    outer loop
      vertex 30 -84 -51.2
      vertex 0 -82 -51.2
      vertex 0 -84 -51.2
    endloop
  endfacet
  facet normal -1 0 0
    outer loop
      vertex 80 -84 -61
      vertex 80 -82 -36.3
      vertex 80 -82 -61
    endloop
  endfacet
  facet normal -1 -0 0
    outer loop
      vertex 80 -82 -36.3
      vertex 80 -84 -61
      vertex 80 -84 -36.3
    endloop
  endfacet
  facet normal 1 -0 0
    outer loop
      vertex 40 -84 -36.3
      vertex 40 -82 -61
      vertex 40 -82 -36.3
    endloop
  endfacet
  facet normal 1 0 0
    outer loop
      vertex 40 -82 -61
      vertex 40 -84 -36.3
      vertex 40 -84 -61
    endloop
  endfacet
  facet normal 0 0 1
    outer loop
      vertex 92.6 25 9.7
      vertex 18.6 25 9.7
      vertex 92.6 0 9.7
    endloop
  endfacet
  facet normal -0 0 1
    outer loop
      vertex 92.6 0 9.7
      vertex 111.2 -84 9.7
      vertex 111.2 0 9.7
    endloop
  endfacet
  facet normal 0 0 1
    outer loop
      vertex 18.6 0 9.7
      vertex 92.6 0 9.7
      vertex 18.6 25 9.7
    endloop
  endfacet
  facet normal 0 0 1
    outer loop
      vertex 92.6 0 9.7
      vertex 18.6 0 9.7
      vertex 111.2 -84 9.7
    endloop
  endfacet
  facet normal 0 0 1
    outer loop
      vertex 0 -84 9.7
      vertex 18.6 0 9.7
      vertex 0 0 9.7
    endloop
  endfacet
  facet normal 0 0 1
    outer loop
      vertex 18.6 0 9.7
      vertex 0 -84 9.7
      vertex 111.2 -84 9.7
    endloop
  endfacet
  facet normal 0 0 -1
    outer loop
      vertex 0 -80 0
      vertex 53.6 -20 0
      vertex 53.6 -80 0
    endloop
  endfacet
  facet normal 0 0 -1
    outer loop
      vertex 53.6 -20 0
      vertex 7.59999 30 0
      vertex 18.6 36 0
    endloop
  endfacet
  facet normal 0 0 -1
    outer loop
      vertex 0 30 0
      vertex 53.6 -20 0
      vertex 0 -80 0
    endloop
  endfacet
  facet normal 0 0 -1
    outer loop
      vertex 53.6 -20 0
      vertex 0 30 0
      vertex 7.59999 30 0
    endloop
  endfacet
  facet normal 0 0 -1
    outer loop
      vertex 57.6 -20 0
      vertex 111.2 0 0
      vertex 111.2 -80 0
    endloop
  endfacet
  facet normal 0 -0 -1
    outer loop
      vertex 92.6 36 0
      vertex 111.2 0 0
      vertex 57.6 -20 0
    endloop
  endfacet
  facet normal 0 0 -1
    outer loop
      vertex 103.6 30 0
      vertex 92.6 36 0
      vertex 103.6 36 0
    endloop
  endfacet
  facet normal 0 0 -1
    outer loop
      vertex 111.2 0 0
      vertex 103.6 30 0
      vertex 111.2 30 0
    endloop
  endfacet
  facet normal 0 0 -1
    outer loop
      vertex 57.6 -20 0
      vertex 111.2 -80 0
      vertex 57.6 -80 0
    endloop
  endfacet
  facet normal 0 0 -1
    outer loop
      vertex 111.2 0 0
      vertex 92.6 36 0
      vertex 103.6 30 0
    endloop
  endfacet
  facet normal 0 0 -1
    outer loop
      vertex 18.6 36 0
      vertex 92.6 36 0
      vertex 57.6 -20 0
    endloop
  endfacet
  facet normal 0 0 -1
    outer loop
      vertex 18.6 36 0
      vertex 57.6 -20 0
      vertex 53.6 -20 0
    endloop
  endfacet
  facet normal 0 0 -1
    outer loop
      vertex 92.6 36 0
      vertex 18.6 36 0
      vertex 55.6 80 0
    endloop
  endfacet
  facet normal -0 0 -1
    outer loop
      vertex 18.6 36 0
      vertex 7.59999 30 0
      vertex 7.59999 36 0
    endloop
  endfacet
  facet normal -1 0 0
    outer loop
      vertex 53.6 -82 -25
      vertex 53.6 -80 -15
      vertex 53.6 -80 -25
    endloop
  endfacet
  facet normal -1 -0 0
    outer loop
      vertex 53.6 -80 -15
      vertex 53.6 -82 -25
      vertex 53.6 -82 -15
    endloop
  endfacet
  facet normal 0 0 -1
    outer loop
      vertex 30 -82 -15
      vertex 53.6 -80 -15
      vertex 53.6 -82 -15
    endloop
  endfacet
  facet normal -0 0 -1
    outer loop
      vertex 53.6 -80 -15
      vertex 30 -82 -15
      vertex 30 -80 -15
    endloop
  endfacet
  facet normal -0 0 1
    outer loop
      vertex 30 -80 -25
      vertex 53.6 -82 -25
      vertex 53.6 -80 -25
    endloop
  endfacet
  facet normal 0 0 1
    outer loop
      vertex 53.6 -82 -25
      vertex 30 -80 -25
      vertex 30 -82 -25
    endloop
  endfacet
  facet normal 1 -0 0
    outer loop
      vertex 30 -82 -15
      vertex 30 -80 -25
      vertex 30 -80 -15
    endloop
  endfacet
  facet normal 1 0 0
    outer loop
      vertex 30 -80 -25
      vertex 30 -82 -15
      vertex 30 -82 -25
    endloop
  endfacet
  facet normal 1 -0 0
    outer loop
      vertex 57.6 -80 0
      vertex 57.6 -32.4747 -1.31114
      vertex 57.6 -20 0
    endloop
  endfacet
  facet normal 1 0 0
    outer loop
      vertex 57.6 -80 0
      vertex 57.6 -44.4042 -5.18727
      vertex 57.6 -32.4747 -1.31114
    endloop
  endfacet
  facet normal 1 0 0
    outer loop
      vertex 57.6 -80 0
      vertex 57.6 -55.2671 -11.459
      vertex 57.6 -44.4042 -5.18727
    endloop
  endfacet
  facet normal 1 0 0
    outer loop
      vertex 57.6 -80 0
      vertex 57.6 -64.5887 -19.8522
      vertex 57.6 -55.2671 -11.459
    endloop
  endfacet
  facet normal 1 0 0
    outer loop
      vertex 57.6 -80 0
      vertex 57.6 -71.9615 -30
      vertex 57.6 -64.5887 -19.8522
    endloop
  endfacet
  facet normal 1 0 0
    outer loop
      vertex 57.6 -80 0
      vertex 57.6 -77.0634 -41.459
      vertex 57.6 -71.9615 -30
    endloop
  endfacet
  facet normal 1 0 0
    outer loop
      vertex 57.6 -80 0
      vertex 57.6 -79.6713 -53.7283
      vertex 57.6 -77.0634 -41.459
    endloop
  endfacet
  facet normal 1 0 0
    outer loop
      vertex 57.6 -80 -60
      vertex 57.6 -79.6713 -53.7283
      vertex 57.6 -80 0
    endloop
  endfacet
  facet normal 1 0 0
    outer loop
      vertex 57.6 -79.6713 -53.7283
      vertex 57.6 -80 -60
      vertex 57.6 -79.6713 -60
    endloop
  endfacet
  facet normal 0 0 -1
    outer loop
      vertex 53.6 -80 -60
      vertex 57.6 -79.6713 -60
      vertex 57.6 -80 -60
    endloop
  endfacet
  facet normal -0 0 -1
    outer loop
      vertex 57.6 -79.6713 -60
      vertex 53.6 -80 -60
      vertex 53.6 -79.6713 -60
    endloop
  endfacet
  facet normal -1 0 0
    outer loop
      vertex 53.6 -79.6713 -60
      vertex 53.6 -80 -60
      vertex 53.6 -79.6713 -53.7283
    endloop
  endfacet
  facet normal -1 0 0
    outer loop
      vertex 53.6 -80 -25
      vertex 53.6 -79.6713 -53.7283
      vertex 53.6 -80 -60
    endloop
  endfacet
  facet normal -1 0 0
    outer loop
      vertex 53.6 -80 -25
      vertex 53.6 -77.0634 -41.459
      vertex 53.6 -79.6713 -53.7283
    endloop
  endfacet
  facet normal -1 0 0
    outer loop
      vertex 53.6 -80 -25
      vertex 53.6 -71.9615 -30
      vertex 53.6 -77.0634 -41.459
    endloop
  endfacet
  facet normal -1 0 0
    outer loop
      vertex 53.6 -80 -25
      vertex 53.6 -64.5887 -19.8522
      vertex 53.6 -71.9615 -30
    endloop
  endfacet
  facet normal -1 0 0
    outer loop
      vertex 53.6 -80 -15
      vertex 53.6 -64.5887 -19.8522
      vertex 53.6 -80 -25
    endloop
  endfacet
  facet normal -1 0 0
    outer loop
      vertex 53.6 -80 0
      vertex 53.6 -64.5887 -19.8522
      vertex 53.6 -80 -15
    endloop
  endfacet
  facet normal -1 0 0
    outer loop
      vertex 53.6 -64.5887 -19.8522
      vertex 53.6 -80 0
      vertex 53.6 -55.2671 -11.459
    endloop
  endfacet
  facet normal -1 0 0
    outer loop
      vertex 53.6 -55.2671 -11.459
      vertex 53.6 -80 0
      vertex 53.6 -44.4042 -5.18727
    endloop
  endfacet
  facet normal -1 0 0
    outer loop
      vertex 53.6 -32.4747 -1.31114
      vertex 53.6 -80 0
      vertex 53.6 -20 0
    endloop
  endfacet
  facet normal -1 0 0
    outer loop
      vertex 53.6 -44.4042 -5.18727
      vertex 53.6 -80 0
      vertex 53.6 -32.4747 -1.31114
    endloop
  endfacet
  facet normal 0 0.809017 -0.587785
    outer loop
      vertex 57.6 -71.9615 -30
      vertex 53.6 -64.5887 -19.8522
      vertex 57.6 -64.5887 -19.8522
    endloop
  endfacet
  facet normal 0 0.809017 -0.587785
    outer loop
      vertex 53.6 -64.5887 -19.8522
      vertex 57.6 -71.9615 -30
      vertex 53.6 -71.9615 -30
    endloop
  endfacet
  facet normal 0 0.309017 -0.951057
    outer loop
      vertex 53.6 -44.4042 -5.18727
      vertex 57.6 -32.4747 -1.31114
      vertex 57.6 -44.4042 -5.18727
    endloop
  endfacet
  facet normal 0 0.309017 -0.951057
    outer loop
      vertex 57.6 -32.4747 -1.31114
      vertex 53.6 -44.4042 -5.18727
      vertex 53.6 -32.4747 -1.31114
    endloop
  endfacet
  facet normal 0 0.66913 -0.743145
    outer loop
      vertex 53.6 -64.5887 -19.8522
      vertex 57.6 -55.2671 -11.459
      vertex 57.6 -64.5887 -19.8522
    endloop
  endfacet
  facet normal 0 0.66913 -0.743145
    outer loop
      vertex 57.6 -55.2671 -11.459
      vertex 53.6 -64.5887 -19.8522
      vertex 53.6 -55.2671 -11.459
    endloop
  endfacet
  facet normal 0 0.978148 -0.20791
    outer loop
      vertex 57.6 -79.6713 -53.7283
      vertex 53.6 -77.0634 -41.459
      vertex 57.6 -77.0634 -41.459
    endloop
  endfacet
  facet normal 0 0.978148 -0.20791
    outer loop
      vertex 53.6 -77.0634 -41.459
      vertex 57.6 -79.6713 -53.7283
      vertex 53.6 -79.6713 -53.7283
    endloop
  endfacet
  facet normal 0 1 -0
    outer loop
      vertex 57.6 -79.6713 -60
      vertex 53.6 -79.6713 -53.7283
      vertex 57.6 -79.6713 -53.7283
    endloop
  endfacet
  facet normal 0 1 0
    outer loop
      vertex 53.6 -79.6713 -53.7283
      vertex 57.6 -79.6713 -60
      vertex 53.6 -79.6713 -60
    endloop
  endfacet
  facet normal 0 0.104528 -0.994522
    outer loop
      vertex 53.6 -32.4747 -1.31114
      vertex 57.6 -20 0
      vertex 57.6 -32.4747 -1.31114
    endloop
  endfacet
  facet normal 0 0.104528 -0.994522
    outer loop
      vertex 57.6 -20 0
      vertex 53.6 -32.4747 -1.31114
      vertex 53.6 -20 0
    endloop
  endfacet
  facet normal 0 0.500002 -0.866024
    outer loop
      vertex 53.6 -55.2671 -11.459
      vertex 57.6 -44.4042 -5.18727
      vertex 57.6 -55.2671 -11.459
    endloop
  endfacet
  facet normal 0 0.500002 -0.866024
    outer loop
      vertex 57.6 -44.4042 -5.18727
      vertex 53.6 -55.2671 -11.459
      vertex 53.6 -44.4042 -5.18727
    endloop
  endfacet
  facet normal 0 0.913545 -0.406738
    outer loop
      vertex 57.6 -77.0634 -41.459
      vertex 53.6 -71.9615 -30
      vertex 57.6 -71.9615 -30
    endloop
  endfacet
  facet normal 0 0.913545 -0.406738
    outer loop
      vertex 53.6 -71.9615 -30
      vertex 57.6 -77.0634 -41.459
      vertex 53.6 -77.0634 -41.459
    endloop
  endfacet
  facet normal 0 0 1
    outer loop
      vertex 103.6 36 4
      vertex 92.6 36 4
      vertex 103.6 30 4
    endloop
  endfacet
  facet normal -0 0 1
    outer loop
      vertex 103.6 30 4
      vertex 111.2 0 4
      vertex 111.2 30 4
    endloop
  endfacet
  facet normal 0 0 1
    outer loop
      vertex 92.6 36 4
      vertex 111.2 0 4
      vertex 103.6 30 4
    endloop
  endfacet
  facet normal 0 0 1
    outer loop
      vertex 18.6 36 4
      vertex 92.6 36 4
      vertex 55.6 80 4
    endloop
  endfacet
  facet normal 0 0 1
    outer loop
      vertex 92.6 36 4
      vertex 18.6 36 4
      vertex 111.2 0 4
    endloop
  endfacet
  facet normal 0 0 1
    outer loop
      vertex 7.59999 30 4
      vertex 18.6 36 4
      vertex 7.59999 36 4
    endloop
  endfacet
  facet normal 0 0 1
    outer loop
      vertex 0 0 4
      vertex 18.6 36 4
      vertex 7.59999 30 4
    endloop
  endfacet
  facet normal 0 0 1
    outer loop
      vertex 0 0 4
      vertex 7.59999 30 4
      vertex 0 30 4
    endloop
  endfacet
  facet normal 0 0 1
    outer loop
      vertex 18.6 36 4
      vertex 0 0 4
      vertex 111.2 0 4
    endloop
  endfacet
  facet normal 0 1 -0
    outer loop
      vertex 111.2 30 0
      vertex 103.6 30 4
      vertex 111.2 30 4
    endloop
  endfacet
  facet normal 0 1 0
    outer loop
      vertex 103.6 30 4
      vertex 111.2 30 0
      vertex 103.6 30 0
    endloop
  endfacet
  facet normal 1 -0 0
    outer loop
      vertex 103.6 30 4
      vertex 103.6 36 0
      vertex 103.6 36 4
    endloop
  endfacet
  facet normal 1 0 0
    outer loop
      vertex 103.6 36 0
      vertex 103.6 30 4
      vertex 103.6 30 0
    endloop
  endfacet
  facet normal 0 1 -0
    outer loop
      vertex 103.6 36 0
      vertex 92.6 36 4
      vertex 103.6 36 4
    endloop
  endfacet
  facet normal 0 1 0
    outer loop
      vertex 92.6 36 4
      vertex 103.6 36 0
      vertex 92.6 36 0
    endloop
  endfacet
  facet normal 0.765362 0.6436 0
    outer loop
      vertex 92.6 36 4
      vertex 55.6 80 0
      vertex 55.6 80 4
    endloop
  endfacet
  facet normal 0.765362 0.6436 0
    outer loop
      vertex 55.6 80 0
      vertex 92.6 36 4
      vertex 92.6 36 0
    endloop
  endfacet
  facet normal -0.765362 0.6436 0
    outer loop
      vertex 18.6 36 0
      vertex 55.6 80 4
      vertex 55.6 80 0
    endloop
  endfacet
  facet normal -0.765362 0.6436 0
    outer loop
      vertex 55.6 80 4
      vertex 18.6 36 0
      vertex 18.6 36 4
    endloop
  endfacet
  facet normal 0 1 -0
    outer loop
      vertex 18.6 36 0
      vertex 7.59999 36 4
      vertex 18.6 36 4
    endloop
  endfacet
  facet normal 0 1 0
    outer loop
      vertex 7.59999 36 4
      vertex 18.6 36 0
      vertex 7.59999 36 0
    endloop
  endfacet
  facet normal -1 0 0
    outer loop
      vertex 7.59999 30 0
      vertex 7.59999 36 4
      vertex 7.59999 36 0
    endloop
  endfacet
  facet normal -1 -0 0
    outer loop
      vertex 7.59999 36 4
      vertex 7.59999 30 0
      vertex 7.59999 30 4
    endloop
  endfacet
  facet normal 0 1 -0
    outer loop
      vertex 7.59999 30 0
      vertex 0 30 4
      vertex 7.59999 30 4
    endloop
  endfacet
  facet normal 0 1 0
    outer loop
      vertex 0 30 4
      vertex 7.59999 30 0
      vertex 0 30 0
    endloop
  endfacet
  facet normal 0 1 0
    outer loop
      vertex 111.2 0 9.7
      vertex 92.6 0 5.7
      vertex 92.6 0 9.7
    endloop
  endfacet
  facet normal 0 1 0
    outer loop
      vertex 92.6 0 5.7
      vertex 111.2 0 4
      vertex 18.6 0 5.7
    endloop
  endfacet
  facet normal 0 1 -0
    outer loop
      vertex 111.2 0 4
      vertex 92.6 0 5.7
      vertex 111.2 0 9.7
    endloop
  endfacet
  facet normal 0 1 -0
    outer loop
      vertex 18.6 0 5.7
      vertex 0 0 9.7
      vertex 18.6 0 9.7
    endloop
  endfacet
  facet normal 0 1 0
    outer loop
      vertex 18.6 0 5.7
      vertex 0 0 4
      vertex 0 0 9.7
    endloop
  endfacet
  facet normal 0 1 0
    outer loop
      vertex 0 0 4
      vertex 18.6 0 5.7
      vertex 111.2 0 4
    endloop
  endfacet
  facet normal 0 0 0
    outer loop
      vertex 111.2 0 9.7
      vertex 111.2 0 0
      vertex 111.2 0 4
    endloop
  endfacet
  facet normal 1 -0 0
    outer loop
      vertex 111.2 0 4
      vertex 111.2 30 0
      vertex 111.2 30 4
    endloop
  endfacet
  facet normal 1 0 0
    outer loop
      vertex 111.2 30 0
      vertex 111.2 0 4
      vertex 111.2 0 0
    endloop
  endfacet
  facet normal 1 -0 0
    outer loop
      vertex 92.6 0 9.7
      vertex 92.6 25 5.7
      vertex 92.6 25 9.7
    endloop
  endfacet
  facet normal 1 0 0
    outer loop
      vertex 92.6 25 5.7
      vertex 92.6 0 9.7
      vertex 92.6 0 5.7
    endloop
  endfacet
  facet normal 0 0 -1
    outer loop
      vertex 18.6 0 5.7
      vertex 92.6 25 5.7
      vertex 92.6 0 5.7
    endloop
  endfacet
  facet normal -0 0 -1
    outer loop
      vertex 92.6 25 5.7
      vertex 18.6 0 5.7
      vertex 18.6 25 5.7
    endloop
  endfacet
  facet normal -1 0 0
    outer loop
      vertex 18.6 0 5.7
      vertex 18.6 25 9.7
      vertex 18.6 25 5.7
    endloop
  endfacet
  facet normal -1 -0 0
    outer loop
      vertex 18.6 25 9.7
      vertex 18.6 0 5.7
      vertex 18.6 0 9.7
    endloop
  endfacet
  facet normal 0 1 -0
    outer loop
      vertex 92.6 25 5.7
      vertex 18.6 25 9.7
      vertex 92.6 25 9.7
    endloop
  endfacet
  facet normal 0 1 0
    outer loop
      vertex 18.6 25 9.7
      vertex 92.6 25 5.7
      vertex 18.6 25 5.7
    endloop
  endfacet
endsolid OpenSCAD_Model
