solid OpenSCAD_Model
  facet normal -0 0 1
    outer loop
      vertex 0 4 30
      vertex 86 0 30
      vertex 86 4 30
    endloop
  endfacet
  facet normal 0 0 1
    outer loop
      vertex 86 0 30
      vertex 0 4 30
      vertex 0 0 30
    endloop
  endfacet
  facet normal 0 0 -1
    outer loop
      vertex 0 0 0
      vertex 86 4 0
      vertex 86 0 0
    endloop
  endfacet
  facet normal -0 0 -1
    outer loop
      vertex 86 4 0
      vertex 0 0 0
      vertex 0 4 0
    endloop
  endfacet
  facet normal 0 -1 0
    outer loop
      vertex 0 0 0
      vertex 86 0 30
      vertex 0 0 30
    endloop
  endfacet
  facet normal 0 -1 -0
    outer loop
      vertex 86 0 30
      vertex 0 0 0
      vertex 86 0 0
    endloop
  endfacet
  facet normal 1 -0 0
    outer loop
      vertex 86 0 30
      vertex 86 4 0
      vertex 86 4 30
    endloop
  endfacet
  facet normal 1 0 0
    outer loop
      vertex 86 4 0
      vertex 86 0 30
      vertex 86 0 0
    endloop
  endfacet
  facet normal 0 1 -0
    outer loop
      vertex 86 4 0
      vertex 0 4 30
      vertex 86 4 30
    endloop
  endfacet
  facet normal 0 1 0
    outer loop
      vertex 0 4 30
      vertex 86 4 0
      vertex 0 4 0
    endloop
  endfacet
  facet normal -1 0 0
    outer loop
      vertex 0 0 0
      vertex 0 4 30
      vertex 0 4 0
    endloop
  endfacet
  facet normal -1 -0 0
    outer loop
      vertex 0 4 30
      vertex 0 0 0
      vertex 0 0 30
    endloop
  endfacet
endsolid OpenSCAD_Model
