solid OpenSCAD_Model
  facet normal 0 0 -1
    outer loop
      vertex 106 37 0
      vertex 110 37 0
      vertex 106 30 0
    endloop
  endfacet
  facet normal -0 -0 -1
    outer loop
      vertex 106 30 0
      vertex 110 0 0
      vertex 103 30 0
    endloop
  endfacet
  facet normal 0 -0 -1
    outer loop
      vertex 110 37 0
      vertex 110 0 0
      vertex 106 30 0
    endloop
  endfacet
  facet normal 0 0 -1
    outer loop
      vertex 103 30 0
      vertex 7 30 0
      vertex 7 40 0
    endloop
  endfacet
  facet normal -0 -0 -1
    outer loop
      vertex 103 40 0
      vertex 103 30 0
      vertex 7 40 0
    endloop
  endfacet
  facet normal -0 0 -1
    outer loop
      vertex 103 30 0
      vertex 0 0 0
      vertex 7 30 0
    endloop
  endfacet
  facet normal -0 0 -1
    outer loop
      vertex 7 30 0
      vertex 0 0 0
      vertex 4 30 0
    endloop
  endfacet
  facet normal 0 -0 -1
    outer loop
      vertex 103 30 0
      vertex 110 0 0
      vertex 0 0 0
    endloop
  endfacet
  facet normal -0 -0 -1
    outer loop
      vertex 4 37 0
      vertex 4 30 0
      vertex 0 37 0
    endloop
  endfacet
  facet normal 0 0 -1
    outer loop
      vertex 0 37 0
      vertex 4 30 0
      vertex 0 0 0
    endloop
  endfacet
  facet normal 0 0 1
    outer loop
      vertex 106 30 4
      vertex 110 37 4
      vertex 106 37 4
    endloop
  endfacet
  facet normal -0 0 1
    outer loop
      vertex 103 30 4
      vertex 110 0 4
      vertex 106 30 4
    endloop
  endfacet
  facet normal -0 0 1
    outer loop
      vertex 106 30 4
      vertex 110 0 4
      vertex 110 37 4
    endloop
  endfacet
  facet normal 0 0 1
    outer loop
      vertex 7 40 4
      vertex 7 30 4
      vertex 103 30 4
    endloop
  endfacet
  facet normal -0 0 1
    outer loop
      vertex 7 40 4
      vertex 103 30 4
      vertex 103 40 4
    endloop
  endfacet
  facet normal -0 0 1
    outer loop
      vertex 7 30 4
      vertex 0 0 4
      vertex 103 30 4
    endloop
  endfacet
  facet normal -0 0 1
    outer loop
      vertex 4 30 4
      vertex 0 0 4
      vertex 7 30 4
    endloop
  endfacet
  facet normal 0 0 1
    outer loop
      vertex 0 0 4
      vertex 110 0 4
      vertex 103 30 4
    endloop
  endfacet
  facet normal -0 0 1
    outer loop
      vertex 0 37 4
      vertex 4 30 4
      vertex 4 37 4
    endloop
  endfacet
  facet normal 0 0 1
    outer loop
      vertex 0 0 4
      vertex 4 30 4
      vertex 0 37 4
    endloop
  endfacet
  facet normal 0 1 0
    outer loop
      vertex 106 37 0
      vertex 110 37 4
      vertex 110 37 0
    endloop
  endfacet
  facet normal 0 1 0
    outer loop
      vertex 106 37 0
      vertex 106 37 4
      vertex 110 37 4
    endloop
  endfacet
  facet normal -1 0 0
    outer loop
      vertex 106 30 0
      vertex 106 37 4
      vertex 106 37 0
    endloop
  endfacet
  facet normal -1 0 0
    outer loop
      vertex 106 30 0
      vertex 106 30 4
      vertex 106 37 4
    endloop
  endfacet
  facet normal 0 1 0
    outer loop
      vertex 103 30 0
      vertex 106 30 4
      vertex 106 30 0
    endloop
  endfacet
  facet normal 0 1 0
    outer loop
      vertex 103 30 0
      vertex 103 30 4
      vertex 106 30 4
    endloop
  endfacet
  facet normal 1 0 0
    outer loop
      vertex 103 40 0
      vertex 103 30 4
      vertex 103 30 0
    endloop
  endfacet
  facet normal 1 0 -0
    outer loop
      vertex 103 40 0
      vertex 103 40 4
      vertex 103 30 4
    endloop
  endfacet
  facet normal 0 1 0
    outer loop
      vertex 7 40 0
      vertex 103 40 4
      vertex 103 40 0
    endloop
  endfacet
  facet normal 0 1 0
    outer loop
      vertex 7 40 0
      vertex 7 40 4
      vertex 103 40 4
    endloop
  endfacet
  facet normal -1 0 0
    outer loop
      vertex 7 30 0
      vertex 7 40 4
      vertex 7 40 0
    endloop
  endfacet
  facet normal -1 0 0
    outer loop
      vertex 7 30 0
      vertex 7 30 4
      vertex 7 40 4
    endloop
  endfacet
  facet normal 0 1 0
    outer loop
      vertex 4 30 0
      vertex 7 30 4
      vertex 7 30 0
    endloop
  endfacet
  facet normal 0 1 0
    outer loop
      vertex 4 30 0
      vertex 4 30 4
      vertex 7 30 4
    endloop
  endfacet
  facet normal 1 0 0
    outer loop
      vertex 4 37 0
      vertex 4 30 4
      vertex 4 30 0
    endloop
  endfacet
  facet normal 1 0 -0
    outer loop
      vertex 4 37 0
      vertex 4 37 4
      vertex 4 30 4
    endloop
  endfacet
  facet normal 0 1 0
    outer loop
      vertex 0 37 0
      vertex 4 37 4
      vertex 4 37 0
    endloop
  endfacet
  facet normal 0 1 0
    outer loop
      vertex 0 37 0
      vertex 0 37 4
      vertex 4 37 4
    endloop
  endfacet
  facet normal -1 0 0
    outer loop
      vertex 0 0 0
      vertex 0 37 4
      vertex 0 37 0
    endloop
  endfacet
  facet normal -1 0 0
    outer loop
      vertex 0 0 0
      vertex 0 0 4
      vertex 0 37 4
    endloop
  endfacet
  facet normal 0 -1 0
    outer loop
      vertex 110 0 0
      vertex 0 0 4
      vertex 0 0 0
    endloop
  endfacet
  facet normal 0 -1 0
    outer loop
      vertex 110 0 0
      vertex 110 0 4
      vertex 0 0 4
    endloop
  endfacet
  facet normal 1 0 0
    outer loop
      vertex 110 37 0
      vertex 110 0 4
      vertex 110 0 0
    endloop
  endfacet
  facet normal 1 0 -0
    outer loop
      vertex 110 37 0
      vertex 110 37 4
      vertex 110 0 4
    endloop
  endfacet
endsolid OpenSCAD_Model
