solid OpenSCAD_Model
  facet normal 1 0 0
    outer loop
      vertex 111.2 0 9.7
      vertex 111.2 -80 0
      vertex 111.2 0 0
    endloop
  endfacet
  facet normal 1 -0 0
    outer loop
      vertex 111.2 -84 9.7
      vertex 111.2 -80 0
      vertex 111.2 0 9.7
    endloop
  endfacet
  facet normal 1 0 0
    outer loop
      vertex 111.2 -84 -61
      vertex 111.2 -80 0
      vertex 111.2 -84 9.7
    endloop
  endfacet
  facet normal 1 0 0
    outer loop
      vertex 111.2 -80 0
      vertex 111.2 -84 -61
      vertex 111.2 -80 -61
    endloop
  endfacet
  facet normal 0 0 1
    outer loop
      vertex 92.6 25 9.7
      vertex 18.6 25 9.7
      vertex 92.6 0 9.7
    endloop
  endfacet
  facet normal -0 0 1
    outer loop
      vertex 92.6 0 9.7
      vertex 111.2 -84 9.7
      vertex 111.2 0 9.7
    endloop
  endfacet
  facet normal 0 0 1
    outer loop
      vertex 18.6 0 9.7
      vertex 92.6 0 9.7
      vertex 18.6 25 9.7
    endloop
  endfacet
  facet normal 0 0 1
    outer loop
      vertex 92.6 0 9.7
      vertex 18.6 0 9.7
      vertex 111.2 -84 9.7
    endloop
  endfacet
  facet normal 0 0 1
    outer loop
      vertex 0 -84 9.7
      vertex 18.6 0 9.7
      vertex 0 0 9.7
    endloop
  endfacet
  facet normal 0 0 1
    outer loop
      vertex 18.6 0 9.7
      vertex 0 -84 9.7
      vertex 111.2 -84 9.7
    endloop
  endfacet
  facet normal 0 0 -1
    outer loop
      vertex 0 -80 0
      vertex 50.6 -30 0
      vertex 50.6 -80 0
    endloop
  endfacet
  facet normal 0 0 -1
    outer loop
      vertex 50.6 -30 0
      vertex 7.59999 30 0
      vertex 18.6 36 0
    endloop
  endfacet
  facet normal 0 0 -1
    outer loop
      vertex 0 30 0
      vertex 50.6 -30 0
      vertex 0 -80 0
    endloop
  endfacet
  facet normal 0 0 -1
    outer loop
      vertex 50.6 -30 0
      vertex 0 30 0
      vertex 7.59999 30 0
    endloop
  endfacet
  facet normal 0 0 -1
    outer loop
      vertex 60.6 -30 0
      vertex 111.2 0 0
      vertex 111.2 -80 0
    endloop
  endfacet
  facet normal 0 -0 -1
    outer loop
      vertex 92.6 36 0
      vertex 111.2 0 0
      vertex 60.6 -30 0
    endloop
  endfacet
  facet normal 0 0 -1
    outer loop
      vertex 103.6 30 0
      vertex 92.6 36 0
      vertex 103.6 36 0
    endloop
  endfacet
  facet normal 0 0 -1
    outer loop
      vertex 111.2 0 0
      vertex 103.6 30 0
      vertex 111.2 30 0
    endloop
  endfacet
  facet normal 0 0 -1
    outer loop
      vertex 60.6 -30 0
      vertex 111.2 -80 0
      vertex 60.6 -80 0
    endloop
  endfacet
  facet normal 0 0 -1
    outer loop
      vertex 111.2 0 0
      vertex 92.6 36 0
      vertex 103.6 30 0
    endloop
  endfacet
  facet normal 0 0 -1
    outer loop
      vertex 18.6 36 0
      vertex 92.6 36 0
      vertex 60.6 -30 0
    endloop
  endfacet
  facet normal 0 0 -1
    outer loop
      vertex 18.6 36 0
      vertex 60.6 -30 0
      vertex 50.6 -30 0
    endloop
  endfacet
  facet normal 0 0 -1
    outer loop
      vertex 92.6 36 0
      vertex 18.6 36 0
      vertex 55.6 80 0
    endloop
  endfacet
  facet normal -0 0 -1
    outer loop
      vertex 18.6 36 0
      vertex 7.59999 30 0
      vertex 7.59999 36 0
    endloop
  endfacet
  facet normal -1 0 0
    outer loop
      vertex 0 -80 -61
      vertex 0 -84 -61
      vertex 0 -80 0
    endloop
  endfacet
  facet normal -1 0 0
    outer loop
      vertex 0 30 0
      vertex 0 0 4
      vertex 0 30 4
    endloop
  endfacet
  facet normal -1 0 0
    outer loop
      vertex 0 -80 0
      vertex 0 0 4
      vertex 0 30 0
    endloop
  endfacet
  facet normal -1 0 0
    outer loop
      vertex 0 -80 0
      vertex 0 0 9.7
      vertex 0 0 4
    endloop
  endfacet
  facet normal -1 0 0
    outer loop
      vertex 0 -80 0
      vertex 0 -84 9.7
      vertex 0 0 9.7
    endloop
  endfacet
  facet normal -1 0 0
    outer loop
      vertex 0 -84 9.7
      vertex 0 -80 0
      vertex 0 -84 -61
    endloop
  endfacet
  facet normal 0 -1 0
    outer loop
      vertex 35 -84 -10
      vertex 0 -84 9.7
      vertex 15 -84 -10
    endloop
  endfacet
  facet normal 0 -1 0
    outer loop
      vertex 0 -84 9.7
      vertex 15 -84 -40
      vertex 15 -84 -10
    endloop
  endfacet
  facet normal 0 -1 -0
    outer loop
      vertex 15 -84 -40
      vertex 0 -84 -61
      vertex 35 -84 -40
    endloop
  endfacet
  facet normal 0 -1 0
    outer loop
      vertex 0 -84 -61
      vertex 15 -84 -40
      vertex 0 -84 9.7
    endloop
  endfacet
  facet normal 0 -1 0
    outer loop
      vertex 0 -84 9.7
      vertex 35 -84 -10
      vertex 111.2 -84 9.7
    endloop
  endfacet
  facet normal 0 -1 0
    outer loop
      vertex 35 -84 -40
      vertex 111.2 -84 9.7
      vertex 35 -84 -10
    endloop
  endfacet
  facet normal 0 -1 0
    outer loop
      vertex 35 -84 -40
      vertex 111.2 -84 -61
      vertex 111.2 -84 9.7
    endloop
  endfacet
  facet normal 0 -1 0
    outer loop
      vertex 111.2 -84 -61
      vertex 35 -84 -40
      vertex 0 -84 -61
    endloop
  endfacet
  facet normal 0 0 -1
    outer loop
      vertex 0 -84 -61
      vertex 111.2 -80 -61
      vertex 111.2 -84 -61
    endloop
  endfacet
  facet normal -0 0 -1
    outer loop
      vertex 111.2 -80 -61
      vertex 0 -84 -61
      vertex 0 -80 -61
    endloop
  endfacet
  facet normal 0 1 0
    outer loop
      vertex 111.2 -80 0
      vertex 60.6 -80 -50
      vertex 60.6 -80 0
    endloop
  endfacet
  facet normal 0 1 0
    outer loop
      vertex 60.6 -80 -50
      vertex 111.2 -80 -61
      vertex 50.6 -80 -50
    endloop
  endfacet
  facet normal 0 1 -0
    outer loop
      vertex 111.2 -80 -61
      vertex 60.6 -80 -50
      vertex 111.2 -80 0
    endloop
  endfacet
  facet normal 0 1 0
    outer loop
      vertex 50.6 -80 0
      vertex 35 -80 -10
      vertex 0 -80 0
    endloop
  endfacet
  facet normal 0 1 0
    outer loop
      vertex 50.6 -80 0
      vertex 35 -80 -40
      vertex 35 -80 -10
    endloop
  endfacet
  facet normal 0 1 0
    outer loop
      vertex 0 -80 -61
      vertex 35 -80 -40
      vertex 50.6 -80 -50
    endloop
  endfacet
  facet normal 0 1 -0
    outer loop
      vertex 50.6 -80 -50
      vertex 35 -80 -40
      vertex 50.6 -80 0
    endloop
  endfacet
  facet normal 0 1 -0
    outer loop
      vertex 15 -80 -10
      vertex 0 -80 0
      vertex 35 -80 -10
    endloop
  endfacet
  facet normal 0 1 -0
    outer loop
      vertex 15 -80 -40
      vertex 0 -80 0
      vertex 15 -80 -10
    endloop
  endfacet
  facet normal 0 1 0
    outer loop
      vertex 15 -80 -40
      vertex 0 -80 -61
      vertex 0 -80 0
    endloop
  endfacet
  facet normal 0 1 0
    outer loop
      vertex 35 -80 -40
      vertex 0 -80 -61
      vertex 15 -80 -40
    endloop
  endfacet
  facet normal 0 1 0
    outer loop
      vertex 0 -80 -61
      vertex 50.6 -80 -50
      vertex 111.2 -80 -61
    endloop
  endfacet
  facet normal -1 0 0
    outer loop
      vertex 35 -84 -40
      vertex 35 -80 -10
      vertex 35 -80 -40
    endloop
  endfacet
  facet normal -1 -0 0
    outer loop
      vertex 35 -80 -10
      vertex 35 -84 -40
      vertex 35 -84 -10
    endloop
  endfacet
  facet normal 0 0 -1
    outer loop
      vertex 15 -84 -10
      vertex 35 -80 -10
      vertex 35 -84 -10
    endloop
  endfacet
  facet normal -0 0 -1
    outer loop
      vertex 35 -80 -10
      vertex 15 -84 -10
      vertex 15 -80 -10
    endloop
  endfacet
  facet normal -0 0 1
    outer loop
      vertex 15 -80 -40
      vertex 35 -84 -40
      vertex 35 -80 -40
    endloop
  endfacet
  facet normal 0 0 1
    outer loop
      vertex 35 -84 -40
      vertex 15 -80 -40
      vertex 15 -84 -40
    endloop
  endfacet
  facet normal 1 -0 0
    outer loop
      vertex 15 -84 -10
      vertex 15 -80 -40
      vertex 15 -80 -10
    endloop
  endfacet
  facet normal 1 0 0
    outer loop
      vertex 15 -80 -40
      vertex 15 -84 -10
      vertex 15 -84 -40
    endloop
  endfacet
  facet normal 1 -0 0
    outer loop
      vertex 60.6 -80 0
      vertex 60.6 -40.3956 -1.09262
      vertex 60.6 -30 0
    endloop
  endfacet
  facet normal 1 0 0
    outer loop
      vertex 60.6 -80 0
      vertex 60.6 -50.3368 -4.32273
      vertex 60.6 -40.3956 -1.09262
    endloop
  endfacet
  facet normal 1 0 0
    outer loop
      vertex 60.6 -80 0
      vertex 60.6 -59.3893 -9.54915
      vertex 60.6 -50.3368 -4.32273
    endloop
  endfacet
  facet normal 1 0 0
    outer loop
      vertex 60.6 -80 0
      vertex 60.6 -67.1572 -16.5435
      vertex 60.6 -59.3893 -9.54915
    endloop
  endfacet
  facet normal 1 0 0
    outer loop
      vertex 60.6 -80 0
      vertex 60.6 -73.3013 -25
      vertex 60.6 -67.1572 -16.5435
    endloop
  endfacet
  facet normal 1 0 0
    outer loop
      vertex 60.6 -80 0
      vertex 60.6 -77.5528 -34.5491
      vertex 60.6 -73.3013 -25
    endloop
  endfacet
  facet normal 1 0 0
    outer loop
      vertex 60.6 -80 0
      vertex 60.6 -79.7261 -44.7736
      vertex 60.6 -77.5528 -34.5491
    endloop
  endfacet
  facet normal 1 0 0
    outer loop
      vertex 60.6 -80 -50
      vertex 60.6 -79.7261 -44.7736
      vertex 60.6 -80 0
    endloop
  endfacet
  facet normal 1 0 0
    outer loop
      vertex 60.6 -79.7261 -44.7736
      vertex 60.6 -80 -50
      vertex 60.6 -79.7261 -50
    endloop
  endfacet
  facet normal 0 0 -1
    outer loop
      vertex 50.6 -80 -50
      vertex 60.6 -79.7261 -50
      vertex 60.6 -80 -50
    endloop
  endfacet
  facet normal -0 0 -1
    outer loop
      vertex 60.6 -79.7261 -50
      vertex 50.6 -80 -50
      vertex 50.6 -79.7261 -50
    endloop
  endfacet
  facet normal -1 0 0
    outer loop
      vertex 50.6 -79.7261 -50
      vertex 50.6 -80 -50
      vertex 50.6 -79.7261 -44.7736
    endloop
  endfacet
  facet normal -1 0 0
    outer loop
      vertex 50.6 -40.3956 -1.09262
      vertex 50.6 -80 0
      vertex 50.6 -30 0
    endloop
  endfacet
  facet normal -1 0 0
    outer loop
      vertex 50.6 -50.3368 -4.32273
      vertex 50.6 -80 0
      vertex 50.6 -40.3956 -1.09262
    endloop
  endfacet
  facet normal -1 0 0
    outer loop
      vertex 50.6 -59.3893 -9.54915
      vertex 50.6 -80 0
      vertex 50.6 -50.3368 -4.32273
    endloop
  endfacet
  facet normal -1 0 0
    outer loop
      vertex 50.6 -67.1572 -16.5435
      vertex 50.6 -80 0
      vertex 50.6 -59.3893 -9.54915
    endloop
  endfacet
  facet normal -1 0 0
    outer loop
      vertex 50.6 -73.3013 -25
      vertex 50.6 -80 0
      vertex 50.6 -67.1572 -16.5435
    endloop
  endfacet
  facet normal -1 0 0
    outer loop
      vertex 50.6 -77.5528 -34.5491
      vertex 50.6 -80 0
      vertex 50.6 -73.3013 -25
    endloop
  endfacet
  facet normal -1 0 0
    outer loop
      vertex 50.6 -79.7261 -44.7736
      vertex 50.6 -80 0
      vertex 50.6 -77.5528 -34.5491
    endloop
  endfacet
  facet normal -1 0 0
    outer loop
      vertex 50.6 -80 0
      vertex 50.6 -79.7261 -44.7736
      vertex 50.6 -80 -50
    endloop
  endfacet
  facet normal 0 0.309019 -0.951056
    outer loop
      vertex 50.6 -50.3368 -4.32273
      vertex 60.6 -40.3956 -1.09262
      vertex 60.6 -50.3368 -4.32273
    endloop
  endfacet
  facet normal 0 0.309019 -0.951056
    outer loop
      vertex 60.6 -40.3956 -1.09262
      vertex 50.6 -50.3368 -4.32273
      vertex 50.6 -40.3956 -1.09262
    endloop
  endfacet
  facet normal 0 0.913547 -0.406734
    outer loop
      vertex 60.6 -77.5528 -34.5491
      vertex 50.6 -73.3013 -25
      vertex 60.6 -73.3013 -25
    endloop
  endfacet
  facet normal 0 0.913547 -0.406734
    outer loop
      vertex 50.6 -73.3013 -25
      vertex 60.6 -77.5528 -34.5491
      vertex 50.6 -77.5528 -34.5491
    endloop
  endfacet
  facet normal 0 0.978147 -0.207913
    outer loop
      vertex 60.6 -79.7261 -44.7736
      vertex 50.6 -77.5528 -34.5491
      vertex 60.6 -77.5528 -34.5491
    endloop
  endfacet
  facet normal 0 0.978147 -0.207913
    outer loop
      vertex 50.6 -77.5528 -34.5491
      vertex 60.6 -79.7261 -44.7736
      vertex 50.6 -79.7261 -44.7736
    endloop
  endfacet
  facet normal 0 0.809013 -0.587791
    outer loop
      vertex 60.6 -73.3013 -25
      vertex 50.6 -67.1572 -16.5435
      vertex 60.6 -67.1572 -16.5435
    endloop
  endfacet
  facet normal 0 0.809013 -0.587791
    outer loop
      vertex 50.6 -67.1572 -16.5435
      vertex 60.6 -73.3013 -25
      vertex 50.6 -73.3013 -25
    endloop
  endfacet
  facet normal 0 0.104528 -0.994522
    outer loop
      vertex 50.6 -40.3956 -1.09262
      vertex 60.6 -30 0
      vertex 60.6 -40.3956 -1.09262
    endloop
  endfacet
  facet normal 0 0.104528 -0.994522
    outer loop
      vertex 60.6 -30 0
      vertex 50.6 -40.3956 -1.09262
      vertex 50.6 -30 0
    endloop
  endfacet
  facet normal 0 0.669136 -0.74314
    outer loop
      vertex 50.6 -67.1572 -16.5435
      vertex 60.6 -59.3893 -9.54915
      vertex 60.6 -67.1572 -16.5435
    endloop
  endfacet
  facet normal 0 0.669136 -0.74314
    outer loop
      vertex 60.6 -59.3893 -9.54915
      vertex 50.6 -67.1572 -16.5435
      vertex 50.6 -59.3893 -9.54915
    endloop
  endfacet
  facet normal 0 0.499997 -0.866027
    outer loop
      vertex 50.6 -59.3893 -9.54915
      vertex 60.6 -50.3368 -4.32273
      vertex 60.6 -59.3893 -9.54915
    endloop
  endfacet
  facet normal 0 0.499997 -0.866027
    outer loop
      vertex 60.6 -50.3368 -4.32273
      vertex 50.6 -59.3893 -9.54915
      vertex 50.6 -50.3368 -4.32273
    endloop
  endfacet
  facet normal 0 1 -0
    outer loop
      vertex 60.6 -79.7261 -50
      vertex 50.6 -79.7261 -44.7736
      vertex 60.6 -79.7261 -44.7736
    endloop
  endfacet
  facet normal 0 1 0
    outer loop
      vertex 50.6 -79.7261 -44.7736
      vertex 60.6 -79.7261 -50
      vertex 50.6 -79.7261 -50
    endloop
  endfacet
  facet normal 0 0 1
    outer loop
      vertex 103.6 36 4
      vertex 92.6 36 4
      vertex 103.6 30 4
    endloop
  endfacet
  facet normal -0 0 1
    outer loop
      vertex 103.6 30 4
      vertex 111.2 0 4
      vertex 111.2 30 4
    endloop
  endfacet
  facet normal 0 0 1
    outer loop
      vertex 92.6 36 4
      vertex 111.2 0 4
      vertex 103.6 30 4
    endloop
  endfacet
  facet normal 0 0 1
    outer loop
      vertex 18.6 36 4
      vertex 92.6 36 4
      vertex 55.6 80 4
    endloop
  endfacet
  facet normal 0 0 1
    outer loop
      vertex 92.6 36 4
      vertex 18.6 36 4
      vertex 111.2 0 4
    endloop
  endfacet
  facet normal 0 0 1
    outer loop
      vertex 7.59999 30 4
      vertex 18.6 36 4
      vertex 7.59999 36 4
    endloop
  endfacet
  facet normal 0 0 1
    outer loop
      vertex 0 0 4
      vertex 18.6 36 4
      vertex 7.59999 30 4
    endloop
  endfacet
  facet normal 0 0 1
    outer loop
      vertex 0 0 4
      vertex 7.59999 30 4
      vertex 0 30 4
    endloop
  endfacet
  facet normal 0 0 1
    outer loop
      vertex 18.6 36 4
      vertex 0 0 4
      vertex 111.2 0 4
    endloop
  endfacet
  facet normal 0 1 -0
    outer loop
      vertex 111.2 30 0
      vertex 103.6 30 4
      vertex 111.2 30 4
    endloop
  endfacet
  facet normal 0 1 0
    outer loop
      vertex 103.6 30 4
      vertex 111.2 30 0
      vertex 103.6 30 0
    endloop
  endfacet
  facet normal 1 -0 0
    outer loop
      vertex 103.6 30 4
      vertex 103.6 36 0
      vertex 103.6 36 4
    endloop
  endfacet
  facet normal 1 0 0
    outer loop
      vertex 103.6 36 0
      vertex 103.6 30 4
      vertex 103.6 30 0
    endloop
  endfacet
  facet normal 0 1 -0
    outer loop
      vertex 103.6 36 0
      vertex 92.6 36 4
      vertex 103.6 36 4
    endloop
  endfacet
  facet normal 0 1 0
    outer loop
      vertex 92.6 36 4
      vertex 103.6 36 0
      vertex 92.6 36 0
    endloop
  endfacet
  facet normal 0.765362 0.6436 0
    outer loop
      vertex 92.6 36 4
      vertex 55.6 80 0
      vertex 55.6 80 4
    endloop
  endfacet
  facet normal 0.765362 0.6436 0
    outer loop
      vertex 55.6 80 0
      vertex 92.6 36 4
      vertex 92.6 36 0
    endloop
  endfacet
  facet normal -0.765362 0.6436 0
    outer loop
      vertex 18.6 36 0
      vertex 55.6 80 4
      vertex 55.6 80 0
    endloop
  endfacet
  facet normal -0.765362 0.6436 0
    outer loop
      vertex 55.6 80 4
      vertex 18.6 36 0
      vertex 18.6 36 4
    endloop
  endfacet
  facet normal 0 1 -0
    outer loop
      vertex 18.6 36 0
      vertex 7.59999 36 4
      vertex 18.6 36 4
    endloop
  endfacet
  facet normal 0 1 0
    outer loop
      vertex 7.59999 36 4
      vertex 18.6 36 0
      vertex 7.59999 36 0
    endloop
  endfacet
  facet normal -1 0 0
    outer loop
      vertex 7.59999 30 0
      vertex 7.59999 36 4
      vertex 7.59999 36 0
    endloop
  endfacet
  facet normal -1 -0 0
    outer loop
      vertex 7.59999 36 4
      vertex 7.59999 30 0
      vertex 7.59999 30 4
    endloop
  endfacet
  facet normal 0 1 -0
    outer loop
      vertex 7.59999 30 0
      vertex 0 30 4
      vertex 7.59999 30 4
    endloop
  endfacet
  facet normal 0 1 0
    outer loop
      vertex 0 30 4
      vertex 7.59999 30 0
      vertex 0 30 0
    endloop
  endfacet
  facet normal 0 1 0
    outer loop
      vertex 111.2 0 9.7
      vertex 92.6 0 5.7
      vertex 92.6 0 9.7
    endloop
  endfacet
  facet normal 0 1 0
    outer loop
      vertex 92.6 0 5.7
      vertex 111.2 0 4
      vertex 18.6 0 5.7
    endloop
  endfacet
  facet normal 0 1 -0
    outer loop
      vertex 111.2 0 4
      vertex 92.6 0 5.7
      vertex 111.2 0 9.7
    endloop
  endfacet
  facet normal 0 1 -0
    outer loop
      vertex 18.6 0 5.7
      vertex 0 0 9.7
      vertex 18.6 0 9.7
    endloop
  endfacet
  facet normal 0 1 0
    outer loop
      vertex 18.6 0 5.7
      vertex 0 0 4
      vertex 0 0 9.7
    endloop
  endfacet
  facet normal 0 1 0
    outer loop
      vertex 0 0 4
      vertex 18.6 0 5.7
      vertex 111.2 0 4
    endloop
  endfacet
  facet normal -0 0 0
    outer loop
      vertex 111.2 0 4
      vertex 111.2 0 9.7
      vertex 111.2 0 0
    endloop
  endfacet
  facet normal 1 -0 0
    outer loop
      vertex 111.2 0 4
      vertex 111.2 30 0
      vertex 111.2 30 4
    endloop
  endfacet
  facet normal 1 0 0
    outer loop
      vertex 111.2 30 0
      vertex 111.2 0 4
      vertex 111.2 0 0
    endloop
  endfacet
  facet normal 1 -0 0
    outer loop
      vertex 92.6 0 9.7
      vertex 92.6 25 5.7
      vertex 92.6 25 9.7
    endloop
  endfacet
  facet normal 1 0 0
    outer loop
      vertex 92.6 25 5.7
      vertex 92.6 0 9.7
      vertex 92.6 0 5.7
    endloop
  endfacet
  facet normal 0 0 -1
    outer loop
      vertex 18.6 0 5.7
      vertex 92.6 25 5.7
      vertex 92.6 0 5.7
    endloop
  endfacet
  facet normal -0 0 -1
    outer loop
      vertex 92.6 25 5.7
      vertex 18.6 0 5.7
      vertex 18.6 25 5.7
    endloop
  endfacet
  facet normal -1 0 0
    outer loop
      vertex 18.6 0 5.7
      vertex 18.6 25 9.7
      vertex 18.6 25 5.7
    endloop
  endfacet
  facet normal -1 -0 0
    outer loop
      vertex 18.6 25 9.7
      vertex 18.6 0 5.7
      vertex 18.6 0 9.7
    endloop
  endfacet
  facet normal 0 1 -0
    outer loop
      vertex 92.6 25 5.7
      vertex 18.6 25 9.7
      vertex 92.6 25 9.7
    endloop
  endfacet
  facet normal 0 1 0
    outer loop
      vertex 18.6 25 9.7
      vertex 92.6 25 5.7
      vertex 18.6 25 5.7
    endloop
  endfacet
endsolid OpenSCAD_Model
